<svg id="Layer_1" data-name="Layer 1" xmlns="http://www.w3.org/2000/svg" viewBox="0 0 1556.88 998.12"><polygon points="0 888.28 0 865.37 23.49 865.37 11.75 567.45 23.88 549.2 66.86 534.88 90.48 534.88 167.15 549.2 167.15 666.17 353.4 659.04 639.94 649.49 988.57 625.62 1093.63 620.84 1093.63 468.73 1093.63 366.49 1084.08 343.85 1074.53 324.75 1069.76 229.23 1093.63 211.35 1122.29 186.25 1141.15 186.25 1141.15 116.16 1146.17 100.29 1146.17 84.93 1146.17 73.09 1160.49 62.08 1165.27 33.43 1165.27 9.3 1170.04 0 1184.58 0 1189.15 14.33 1193.92 47.76 1213.03 62.08 1217.8 85.96 1227.35 109.84 1232.13 148.05 1236.9 176.7 1270.33 181.48 1294.21 200.58 1298.99 243.56 1313.32 257.89 1313.32 301.7 1308.54 315.2 1313.32 324.66 1313.32 337.58 1298.99 353.4 1298.99 391.61 1303.76 468.02 1303.76 659.04 1308.54 687.7 1370.62 687.7 1384.95 697.25 1399.28 711.58 1413.6 749.78 1413.6 778.12 1418.38 787.99 1432.71 792.76 1437.48 802.32 1451.81 802.32 1451.81 793.25 1461.36 792.76 1470.91 783.21 1466.14 764.11 1466.14 754.56 1461.36 702.03 1470.91 684.6 1499.57 682.92 1533 682.92 1552.1 692.48 1556.88 721.13 1556.88 795.23 1556.88 929.55 1556.88 960.5 1455.85 960.5 1447.03 983.79 1352.47 983.79 1346.74 998.12 1022 983.79 14.33 893.05 0 888.28"/></svg>