<?xml version="1.0" encoding="utf-8"?>
<!-- Generator: Adobe Illustrator 24.2.0, SVG Export Plug-In . SVG Version: 6.00 Build 0)  -->
<svg version="1.1" id="Layer_1" xmlns="http://www.w3.org/2000/svg" xmlns:xlink="http://www.w3.org/1999/xlink" x="0px" y="0px"
	 viewBox="0 0 595.28 841.89" style="enable-background:new 0 0 595.28 841.89;" xml:space="preserve">
<style type="text/css">
	.st0{fill:#ED1C24;}
	.st1{fill:#FFFFFF;}
	.st2{fill:#129F49;}
</style>
<g>
	<path class="st0" d="M168.33,461.13c3.22,0,24.52,1.01,24.52,1.01l26.05-21.3l11.92,4.51h12.89l69.26,125.32l-142.39-23.84
		l-24.81-57.66l-45.1-37.69l-12.56-38.01c0,0,7.73-4.51,9.02-4.83c1.29-0.32,13.85,0,13.85,0l12.24-5.15l1.93,3.87l9.66,3.22
		l0.97,7.73l-11.92,16.11l7.73-0.64l4.83,3.22l6.44-9.99l5.15,0.97l2.26,10.63l6.77-2.26l3.87,2.26l-0.97,14.17L168.33,461.13z"/>
	<path class="st1" d="M291.07,531.04l163.32-69.58v-3.22h10.95l6.12-5.15l11.92,1.93l7.73-6.44l-3.22-6.44l-12.89-9.95l3.54-7.44
		l-3.22-7.41l-0.64-28.99l-2.26-3.22l3.22-6.77l-118.87,47.68l9.02,0.97v2.9l-6.77,5.15c0,0-21.91-2.26-20.62-0.64
		c1.29,1.61,2.58,6.12,2.58,6.12l-11.6,8.05h-31.89l-42.07,18L291.07,531.04z"/>
	<polygon class="st2" points="243.71,445.35 268.59,443.9 270.04,448.97 297.51,448.57 255.44,466.57 	"/>
	<path d="M291.07,531.04l21.9,39.63c0,0,88.27,14.82,89.23,14.82c0.97,0,13.85,0,13.85,0v-6.77l15.14-14.17l4.83-9.34l-2.58-28.67
		l7.09-6.12l5.15-5.48c0,0,2.58-12.56,3.54-13.53c0.97-0.97,9.02-9.34,9.02-9.34l-3.87-30.6L291.07,531.04z"/>
	<path class="st2" d="M356.78,426.02l-4.35-0.97v-5.56l8.46-4.59l6.52,4.35l9.66-4.35l3.62-22.47l5.8-3.14h4.11l40.59-36.24
		l2.17-6.77l18.85-14.01l1.93-8.46l5.32-3.62c0,0,24.89-23.44,25.37-24.4c0.48-0.97,6.28-16.43,6.28-16.43l14.26,7.01l-3.38,31.65
		l12.81-0.24l4.11,10.39v33.58L356.78,426.02z"/>
	<polygon class="st1" points="518.9,361.75 518.9,374.8 511.17,389.29 497.88,391.71 489.43,383.74 489.43,378.34 497.57,370.21 	
		"/>
</g>
</svg>
