<svg id="Layer_1" data-name="Layer 1" xmlns="http://www.w3.org/2000/svg" viewBox="0 0 901.17 987"><polygon points="241 280.1 329.49 191.6 294.94 120.57 274.97 88.97 269.74 91.96 232.96 116.48 190.32 153.02 208.44 183.91 241 280.1"/><polygon points="404.04 368.64 320.71 493.5 318.76 495.91 346.09 569.77 379.22 692.47 465.91 539.48 470.56 530.47 459.78 499.78 404.04 368.64"/><polygon points="392.53 340.27 355.56 245.22 338.64 210.42 306.52 245.22 250.48 308.09 263.61 346.88 304.29 456.82 306.52 453.65 392.53 340.27"/><polygon points="488.3 265.15 483.45 254.1 429.13 331.04 421.77 342.07 441.39 386.22 481.55 509.18 545.84 384.63 488.3 265.15"/><polygon points="355.43 192.23 367.83 220.7 410.47 316.63 441.39 275.87 475.94 236.98 427.82 127.34 380.09 165.52 355.43 192.23"/><polygon points="611.95 265.52 635.81 223.76 592.83 138.53 576.26 153.26 565.7 163.82 576.26 179.44 611.95 265.52"/><polygon points="710.02 507.82 728.65 560.4 729.52 557.87 756.61 468.85 741.78 416.87 710.53 361.58 682.15 438.59 710.02 507.82"/><polygon points="763.27 492.19 760.17 502.7 738.37 587.83 780.05 705.45 788.41 771.38 796.96 754.04 815.35 625.3 810.64 658.22 763.27 492.19"/><polygon points="895.04 588.52 882.78 527.22 864.39 459.78 846 423 821.48 355.56 796.96 306.52 766.3 251.35 729.52 196.17 692.74 147.13 649.83 98.09 600.78 55.17 539.48 24.52 484.3 6.13 423.65 0 410.74 24.52 396.25 29.35 417.96 51.76 437.73 92.01 472.04 61.3 475.11 59.39 459.78 30.65 483.36 54.23 521.09 30.65 539.48 42.91 500.44 71.31 508.83 79.7 554.99 147.98 556.48 146.31 585.28 123.56 569.34 91.96 576.26 67.82 591.01 91.96 601.03 111.13 625.3 91.96 631.43 104.22 608.2 124.87 645.64 196.54 662.43 146.31 680.48 153.26 656.47 217.28 704.21 308.68 717.26 239.09 735.65 257.48 718.73 336.47 747.91 392.35 763.5 446.21 772.43 416.87 790.83 337.17 796.96 349.44 783.68 423 770.11 469.02 815.35 625.3 815.35 488.2 821.48 435.26 833.74 441.39 827.61 508.83 827.61 582.39 824.47 656.84 811.24 754.04 793.12 808.47 801.76 876.65 786.47 888.91 780.3 836.4 766.3 864.39 742.89 900.46 726.36 900.46 710.02 907.3 680.48 801.01 668.65 759.71 643.7 809.22 591.01 900.46 587.26 881.38 576.26 901.17 541.45 758.06 502.7 839.87 459.78 900.46 446.38 888.91 533.12 723.82 521.09 674.35 479.42 555.69 429.13 643.7 385.08 714.18 410.74 809.22 446.38 876.65 435.26 907.3 414.9 888.91 367.83 741.78 300.39 864.39 288.13 888.91 263.61 876.65 361.7 723.39 362.62 721.75 323.16 569.77 303.84 514.33 263.61 564 208.44 631.43 188.94 660.68 202.3 692.74 245.22 876.65 232.96 858.26 221.02 807.13 175.6 683.19 153.26 723.39 134.87 754.04 122.61 729.52 166.23 658.14 113.67 517.61 106.95 494.02 85.83 527.22 49.04 591.21 49.04 533.35 97.47 460.71 50.26 294.88 18.39 333.88 18.39 292.62 79.7 220.7 163.69 154.7 170.4 170.1 190.32 153.02 182.6 139.84 251.35 85.83 267.62 77.34 274.97 88.97 303.39 72.73 298.4 61.27 377.39 20.06 383.8 33.5 396.25 29.35 383.95 16.64 392.35 12.26 423.65 0 367.83 0 318.78 6.13 269.74 18.39 196.17 49.04 141 91.96 98.09 141 49.04 220.7 18.39 274.43 0 318.78 0 400.2 18.39 551.74 55.17 668.22 104.22 760.17 159.39 833.74 232.96 895.04 190.04 882.78 141 919.57 208.44 980.87 478.17 987 600.78 974.74 827.61 956.35 852.13 925.7 876.65 882.78 888.91 827.61 901.17 771.34 901.17 715.27 901.17 643.7 895.04 588.52"/><polygon points="623.77 294.04 630.77 310.93 670.6 409.88 698 339.41 662.09 275.87 646.26 244.5 643.7 251.35 623.77 294.04"/><polygon points="716.13 569.77 675.21 457.45 674.35 459.78 634.69 560.79 662.09 680.48 673.63 719.97 720.74 583.33 716.13 569.77"/><polygon points="775.69 797.18 766.3 717.26 730.43 611.81 686.61 724.09 679.15 738.88 726.36 900.46 735.65 878.41 775.69 797.18"/><polygon points="500.09 230.52 503.59 239.09 556.56 363.84 564 349.44 597.35 291.07 557.87 214.56 542.94 186.58 502.7 226.83 500.09 230.52"/><polygon points="494.29 216.32 534.6 170.94 486.77 81.25 472.04 91.96 447.39 111.68 472.04 161.85 494.29 216.32"/><polygon points="664.03 426.76 655.96 404.61 611.96 319.36 600.78 343.3 570.65 396.04 624.81 517.61 624.81 517.61 655.96 447.52 664.03 426.76"/><polygon points="608.53 554.23 576.26 447.8 560.17 414.38 502.7 514.96 490.44 536.4 539.48 663.4 546.42 693.98 606.91 557.87 608.53 554.23"/><polygon points="355.56 165.52 419.48 108.34 383.8 33.5 355.56 42.91 303.39 72.73 347.37 173.72 355.56 165.52"/><polygon points="631.43 629.76 620.89 594.98 557.87 723.39 554.64 730.21 576.26 825.48 587.26 881.38 663.96 743.32 631.43 629.76"/><polygon points="234.97 325.48 221.02 341.13 128.74 459.78 119.42 474.42 143.51 551.77 179.09 637.09 190.04 619.17 290.59 476.3 263.61 398.86 234.97 325.48"/><polygon points="85.83 251.35 58.88 284.32 66.27 292.62 91.96 386.22 109.52 442.63 110.35 441.39 224.23 297.96 208.44 257.48 170.4 170.1 147.13 190.04 85.83 251.35"/><polygon points="166.23 658.14 175.6 683.19 183.91 668.22 188.94 660.68 179.09 637.09 166.23 658.14"/><polygon points="41.8 265.15 50.26 294.88 58.88 284.32 41.8 265.15"/><polygon points="109.52 442.63 97.47 460.71 106.95 494.02 119.42 474.42 109.52 442.63"/><polygon points="304.29 456.82 290.59 476.3 303.84 514.33 318.76 495.91 304.29 456.82"/><polygon points="250.48 308.09 241 280.1 228.48 292.62 224.23 297.96 234.97 325.48 250.48 308.09"/><polygon points="362.62 721.75 367.83 741.78 385.08 714.18 379.22 692.47 362.62 721.75"/><polygon points="546.42 693.98 533.35 723.39 533.12 723.82 541.45 758.06 554.64 730.21 546.42 693.98"/><polygon points="398.48 355.56 404.04 368.64 421.77 342.07 410.47 316.63 392.53 340.27 398.48 355.56"/><polygon points="481.55 509.18 470.56 530.47 479.42 555.69 490.44 536.4 481.55 509.18"/><polygon points="355.43 192.23 347.37 173.72 329.49 191.6 338.64 210.42 355.43 192.23"/><polygon points="500.09 230.52 494.29 216.32 475.94 236.98 483.45 254.1 500.09 230.52"/><polygon points="673.63 719.97 668.22 735.65 663.96 743.32 668.65 759.71 679.15 738.88 673.63 719.97"/><polygon points="560.17 414.38 570.65 396.04 561.7 375.93 556.56 363.84 545.84 384.63 560.17 414.38"/><polygon points="634.69 560.79 624.81 517.61 608.53 554.23 620.89 594.98 622.74 591.21 634.69 560.79"/><polygon points="427.82 127.34 447.39 111.68 437.73 92.01 419.48 108.34 427.82 127.34"/><polygon points="542.94 186.58 565.7 163.82 554.99 147.98 534.6 170.94 542.94 186.58"/><polygon points="500.44 71.31 483.36 54.23 475.11 59.39 486.77 81.25 500.44 71.31"/><polygon points="720.74 583.33 730.43 611.81 735.65 598.43 738.37 587.83 728.65 560.4 720.74 583.33"/><polygon points="675.21 457.45 682.15 438.59 670.6 409.88 664.03 426.76 675.21 457.45"/><polygon points="775.69 797.18 780.3 836.4 790.83 815.35 793.12 808.47 788.41 771.38 775.69 797.18"/><polygon points="623.77 294.04 611.95 265.52 597.35 291.07 611.96 319.36 623.77 294.04"/><polygon points="698 339.41 710.53 361.58 717.26 343.3 718.73 336.47 704.21 308.68 698.87 337.17 698 339.41"/><polygon points="763.27 492.19 770.11 469.02 763.5 446.21 756.61 468.85 763.27 492.19"/><polygon points="608.2 124.87 601.03 111.13 585.28 123.56 592.83 138.53 608.2 124.87"/><polygon points="635.81 223.76 646.26 244.5 656.47 217.28 645.64 196.54 637.57 220.7 635.81 223.76"/></svg>