<svg id="Layer_1" data-name="Layer 1" xmlns="http://www.w3.org/2000/svg" viewBox="0 0 576 630.79"><defs><style>.cls-1{stroke:#fff;stroke-miterlimit:10;}</style></defs><polygon class="cls-1" points="154.27 179.25 210.73 122.78 188.69 77.46 175.94 57.3 172.61 59.2 149.14 74.85 121.94 98.17 133.49 117.88 154.27 179.25"/><polygon class="cls-1" points="258.3 235.75 205.13 315.41 203.89 316.95 221.33 364.08 242.46 442.37 297.78 344.75 300.74 339 293.87 319.42 258.3 235.75"/><polygon class="cls-1" points="250.96 217.65 227.37 156.99 216.57 134.79 196.08 156.99 160.32 197.11 168.7 221.86 194.66 292.01 196.08 289.99 250.96 217.65"/><polygon class="cls-1" points="312.06 169.71 308.97 162.66 274.31 211.76 269.61 218.79 282.13 246.96 307.76 325.42 348.77 245.94 312.06 169.71"/><polygon class="cls-1" points="227.28 123.19 235.19 141.35 262.4 202.56 282.13 176.55 304.17 151.74 273.47 81.78 243.02 106.14 227.28 123.19"/><polygon class="cls-1" points="390.96 169.95 406.18 143.31 378.76 88.92 368.19 98.32 361.45 105.06 368.19 115.02 390.96 169.95"/><polygon class="cls-1" points="453.53 324.55 465.42 358.1 465.98 356.48 483.26 299.69 473.8 266.52 453.86 231.24 435.75 280.38 453.53 324.55"/><polygon class="cls-1" points="487.51 314.58 485.53 321.28 471.62 375.6 498.22 450.65 503.55 492.71 509 481.65 520.74 399.51 517.74 420.51 487.51 314.58"/><polygon class="cls-1" points="571.59 376.04 563.76 336.93 552.03 293.9 540.3 270.43 524.65 227.4 509 196.11 489.45 160.91 465.98 125.7 442.51 94.41 415.13 63.12 383.83 35.73 344.72 16.18 309.51 4.44 270.81 0.53 262.57 16.18 253.33 19.26 267.18 33.56 279.8 59.24 301.69 39.65 303.65 38.42 293.87 20.09 308.91 35.13 332.98 20.09 344.72 27.91 319.81 46.03 325.16 51.38 354.62 94.95 355.57 93.88 373.94 79.37 363.77 59.2 368.19 43.8 377.6 59.2 383.99 71.44 399.48 59.2 403.39 67.03 388.57 80.2 412.45 125.93 423.17 93.88 434.68 98.32 419.37 139.17 449.83 197.49 458.15 153.08 469.89 164.82 459.09 215.22 477.71 250.87 487.66 285.24 493.36 266.52 505.09 215.67 509 223.49 500.53 270.43 491.87 299.79 520.74 399.51 520.74 312.03 524.65 278.25 532.47 282.16 528.56 325.19 528.56 372.13 526.55 419.63 518.12 481.65 506.55 516.38 512.07 559.88 502.31 567.71 498.38 534.2 489.45 552.06 474.51 575.07 463.96 575.07 453.53 579.44 434.68 511.62 427.14 485.27 411.21 516.86 377.6 575.07 375.2 562.9 368.19 575.53 345.98 484.21 321.25 536.42 293.87 575.07 285.31 567.71 340.66 462.37 332.98 430.8 306.39 355.1 274.31 411.25 246.2 456.22 262.57 516.86 285.31 559.88 278.22 579.44 265.23 567.71 235.19 473.83 192.17 552.06 184.34 567.71 168.7 559.88 231.28 462.1 231.88 461.05 206.69 364.08 194.37 328.7 168.7 360.39 133.49 403.42 121.05 422.09 129.58 442.54 156.96 559.88 149.14 548.15 141.52 515.53 112.54 436.44 98.29 462.1 86.55 481.65 78.73 466.01 106.56 420.46 73.03 330.8 68.74 315.74 55.26 336.93 31.79 377.75 31.79 340.84 62.69 294.49 32.57 188.68 12.23 213.57 12.23 187.24 51.35 141.35 104.94 99.24 109.22 109.06 121.94 98.17 117.01 89.76 160.87 55.29 171.25 49.88 175.94 57.3 194.08 46.94 190.9 39.63 241.3 13.33 245.38 21.91 253.33 19.26 245.48 11.15 250.84 8.36 270.81 0.53 235.19 0.53 203.9 4.44 172.61 12.27 125.67 31.82 90.47 59.2 63.09 90.5 31.79 141.35 12.23 175.63 0.5 203.93 0.5 255.88 12.23 352.57 35.7 426.89 67 485.56 102.2 532.5 149.14 571.62 121.76 563.8 90.47 587.27 133.49 626.38 305.6 630.29 383.83 622.47 528.56 610.74 544.21 591.18 559.85 563.8 567.68 528.59 575.5 492.69 575.5 456.91 575.5 411.25 571.59 376.04"/><polygon class="cls-1" points="398.5 188.15 402.97 198.92 428.38 262.06 445.86 217.09 422.95 176.55 412.85 156.53 411.21 160.91 398.5 188.15"/><polygon class="cls-1" points="457.43 364.08 431.32 292.41 430.77 293.9 405.47 358.35 422.95 434.71 430.31 459.91 460.38 372.73 457.43 364.08"/><polygon class="cls-1" points="495.44 509.18 489.45 458.18 466.56 390.9 438.6 462.54 433.84 471.98 463.96 575.07 469.89 561.01 495.44 509.18"/><polygon class="cls-1" points="319.58 147.62 321.82 153.08 355.62 232.68 360.36 223.49 381.64 186.25 356.45 137.44 346.93 119.58 321.25 145.26 319.58 147.62"/><polygon class="cls-1" points="315.88 138.56 341.61 109.6 311.08 52.37 301.69 59.2 285.96 71.79 301.69 103.8 315.88 138.56"/><polygon class="cls-1" points="424.19 272.83 419.04 258.69 390.96 204.3 383.83 219.58 364.61 253.22 399.16 330.8 399.16 330.8 419.04 286.08 424.19 272.83"/><polygon class="cls-1" points="388.78 354.16 368.19 286.25 357.92 264.93 321.25 329.1 313.43 342.78 344.72 423.82 349.15 443.33 387.75 356.48 388.78 354.16"/><polygon class="cls-1" points="227.37 106.14 268.15 69.66 245.38 21.91 227.37 27.91 194.08 46.94 222.14 111.37 227.37 106.14"/><polygon class="cls-1" points="403.39 402.35 396.66 380.16 356.45 462.1 354.39 466.45 368.19 527.23 375.2 562.9 424.14 474.81 403.39 402.35"/><polygon class="cls-1" points="150.43 208.21 141.52 218.19 82.64 293.9 76.7 303.24 92.07 352.59 114.77 407.03 121.76 395.6 185.91 304.44 168.7 255.03 150.43 208.21"/><polygon class="cls-1" points="55.26 160.91 38.07 181.95 42.78 187.24 59.17 246.96 70.38 282.95 70.91 282.16 143.57 190.65 133.49 164.82 109.22 109.06 94.38 121.79 55.26 160.91"/><polygon class="cls-1" points="106.56 420.46 112.54 436.44 117.85 426.89 121.05 422.09 114.77 407.03 106.56 420.46"/><polygon class="cls-1" points="27.17 169.71 32.57 188.68 38.07 181.95 27.17 169.71"/><polygon class="cls-1" points="70.38 282.95 62.69 294.49 68.74 315.74 76.7 303.24 70.38 282.95"/><polygon class="cls-1" points="194.66 292.01 185.91 304.44 194.37 328.7 203.89 316.95 194.66 292.01"/><polygon class="cls-1" points="160.32 197.11 154.27 179.25 146.28 187.24 143.57 190.65 150.43 208.21 160.32 197.11"/><polygon class="cls-1" points="231.88 461.05 235.19 473.83 246.2 456.22 242.46 442.37 231.88 461.05"/><polygon class="cls-1" points="349.15 443.33 340.81 462.1 340.66 462.37 345.98 484.21 354.39 466.45 349.15 443.33"/><polygon class="cls-1" points="254.75 227.4 258.3 235.75 269.61 218.79 262.4 202.56 250.96 217.65 254.75 227.4"/><polygon class="cls-1" points="307.76 325.42 300.74 339 306.39 355.1 313.43 342.78 307.76 325.42"/><polygon class="cls-1" points="227.28 123.19 222.14 111.37 210.73 122.78 216.57 134.79 227.28 123.19"/><polygon class="cls-1" points="319.58 147.62 315.88 138.56 304.17 151.74 308.97 162.66 319.58 147.62"/><polygon class="cls-1" points="430.31 459.91 426.86 469.92 424.14 474.81 427.14 485.27 433.84 471.98 430.31 459.91"/><polygon class="cls-1" points="357.92 264.93 364.61 253.22 358.89 240.4 355.62 232.68 348.77 245.94 357.92 264.93"/><polygon class="cls-1" points="405.47 358.35 399.16 330.8 388.78 354.16 396.66 380.16 397.85 377.75 405.47 358.35"/><polygon class="cls-1" points="273.47 81.78 285.96 71.79 279.8 59.24 268.15 69.66 273.47 81.78"/><polygon class="cls-1" points="346.93 119.58 361.45 105.06 354.62 94.95 341.61 109.6 346.93 119.58"/><polygon class="cls-1" points="319.81 46.03 308.91 35.13 303.65 38.42 311.08 52.37 319.81 46.03"/><polygon class="cls-1" points="460.38 372.73 466.56 390.9 469.89 382.36 471.62 375.6 465.42 358.1 460.38 372.73"/><polygon class="cls-1" points="431.32 292.41 435.75 280.38 428.38 262.06 424.19 272.83 431.32 292.41"/><polygon class="cls-1" points="495.44 509.18 498.38 534.2 505.09 520.77 506.55 516.38 503.55 492.71 495.44 509.18"/><polygon class="cls-1" points="398.5 188.15 390.96 169.95 381.64 186.25 390.96 204.3 398.5 188.15"/><polygon class="cls-1" points="445.86 217.09 453.86 231.24 458.15 219.58 459.09 215.22 449.83 197.49 446.42 215.67 445.86 217.09"/><polygon class="cls-1" points="487.51 314.58 491.87 299.79 487.66 285.24 483.26 299.69 487.51 314.58"/><polygon class="cls-1" points="388.57 80.2 383.99 71.44 373.94 79.37 378.76 88.92 388.57 80.2"/><polygon class="cls-1" points="406.18 143.31 412.85 156.53 419.37 139.17 412.45 125.93 407.3 141.35 406.18 143.31"/></svg>