<svg id="Layer1" xmlns="http://www.w3.org/2000/svg" viewBox="0 0 200.86 582.06"><defs><style>.cls-1,.cls-2,.cls-3,.cls-4,.cls-5,.cls-6{stroke:#000;stroke-miterlimit:10;}.cls-2{fill:#e0ac69;}.cls-3{fill:#fff;}.cls-4{fill:none;}.cls-5{fill:#452900;}.cls-6{fill:#696969;}</style></defs><polygon class="cls-1" points="72.55 0.5 68.58 11.73 65.28 21.64 61.98 29.56 58.01 40.79 54.58 47.4 42.16 50.7 27.63 55.99 44.14 55.99 54.58 55.99 59.33 55.99 72.55 55.99 83.58 55.99 93.68 59.95 101.61 63.91 110.86 67.88 119.44 72.5 126.71 75.8 135.3 80.43 130.01 69.2 122.09 61.93 125.39 50.04 128.69 40.46 131.33 28.9 135.3 11.07 120.77 7.11 104.25 4.46 87.74 0.5 72.55 0.5"/><path class="cls-2" d="M704.86,296.79l-8.58-4.62-9.25-4-18-7.92H632.86v9.25l-6.6,5.94-4.63,5.95v15.19h2.43a5.08,5.08,0,0,1,6.16,0H640l3.43,9.25,3.31,6.6,5.28,4h14.86l5-8.58,3.3-6.61,7.27-2,6.6.66,5.29,3.3,5.94-2,5.28-2v-10.9Z" transform="translate(-585.42 -224.29)"/><polyline class="cls-2" points="89.72 67.22 97.64 67.22 101.61 74.48 101.61 80.43 101.61 86.37 95.66 89.01 89.72 89.01"/><path class="cls-3" d="M698,314.63a33.93,33.93,0,0,0-11-20.26,30,30,0,0,0-4-2.86l4,7.26v11.89l-1.11,8.94-3.51-.35-7.27,2-8.26,15.19H652l-4-3-1.92,2.13c-1.33.89-3.09,2.14-5.07,3.75a59.65,59.65,0,0,0-6.38,5.94c-2.37,2.6-3.56,3.9-4.41,5.95-.68,1.65-2,4.78-.66,7.26.8,1.51,3.12,2.35,7.71,4l8.14,2.86c7.68,1.74,14.93-2,19.6-4.41,4.85-2.49,9-6.21,17.18-13.65,5.81-5.26,8.74-7.88,10.34-10.35A32.91,32.91,0,0,0,698,314.63Z" transform="translate(-585.42 -224.29)"/><polyline class="cls-4" points="93.35 72.11 96.66 73.87 97.98 76.94 97.98 80.44 97.98 83.29 95.66 84.06 93.35 85.05"/><path class="cls-4" d="M679.76,302.41" transform="translate(-585.42 -224.29)"/><polygon class="cls-3" points="120.1 94.96 122.53 100.24 109.76 107.84 112.02 101.4 112.67 97.66 120.1 94.96"/><polygon class="cls-5" points="122 100.24 112.06 105.99 108.86 107.84 103.12 116.04 90.27 130.3 79.73 139.88 71.92 144.83 65.46 149.78 59.68 155.73 53.9 162.66 52.07 170.92 52.07 177.53 59 183.14 66.82 190.08 71.58 190.08 76.4 189.09 81.92 183.14 91.97 178.52 100.47 174.88 105.91 172.24 112.06 169.27 115.43 167.62 100.47 153.42 96.73 151.77 110.33 153.75 140.58 126.67 122 100.24"/><polygon class="cls-5" points="140.58 126.67 147.52 138.22 155.44 147.47 140.58 155.4 115.43 167.62 100.47 153.42 96.73 151.77 110.33 153.75 140.58 126.67"/><polygon class="cls-5" points="81.92 183.14 76.51 195.36 71.55 206.26 68.25 213.53 65.28 222.78 62.64 233.34 59.99 241.27 58.01 246.88 54.58 258.77 52.07 268.68 50.09 278.92 50.09 287.71 50.09 298.41 50.09 314.26 50.09 333.09 50.09 351.58 50.09 376.68 52.07 459.91 149.17 459.91 151.81 455.62 171.63 455.95 168.32 302.04 149.5 335.73 140.58 335.4 135.3 347.95 126.09 352.9 118.78 353.89 112.86 351.25 110.86 347.95 107.88 350.92 103.59 352.9 96.73 353.56 93.35 351.25 89.72 346.3 89.72 340.35 91.37 335.4 94.34 328.79 97.98 324.17 101.61 318.55 97.98 316.24 143.55 252.5 118.12 199.66 127.57 161.72 83.58 182.38 81.92 183.14"/><polyline class="cls-5" points="101.61 318.22 97.98 315.91 143.55 252.17 118.12 199.32 127.57 161.39 155.44 147.14 175.59 172.57 182.53 189.75 187.48 213.2 200.36 239.95 200.36 247.88 197.72 255.14 168.32 301.71 149.5 335.4 140.58 335.07 105.24 316.57 101.61 318.22"/><polyline class="cls-2" points="101.76 318.72 105.39 316.74 140.73 335.56 135.45 348.11 126.24 353.07 118.93 354.06 113.02 351.42 111.01 348.11 108.03 351.09 103.74 353.07 96.88 353.73 93.5 351.42 89.87 346.46 89.87 340.52 94.49 328.96 98.13 324.33 101.76 318.72"/><polygon class="cls-5" points="52.07 177.53 45.24 188.1 41.94 195.8 38.42 207.91 35.55 219.36 31.37 240.28 27.63 262.52 24.77 294 21.68 329.01 20.58 336.94 19.04 347.29 15.74 359.18 11.33 374.59 7.37 396.17 4.73 415.76 2.31 430.52 0.55 443.07 11.33 448.57 25.2 456.06 32.91 458.92 52.04 458.92 50.09 314.26 50.09 278.92 52.67 266.3 56.96 250.52 62.12 234.9 64.75 224.9 68.25 213.53 81.92 183.14 76.4 189.09 66.82 190.08 52.07 177.53"/><polygon class="cls-1" points="79.15 581.56 60.88 581.56 18.6 581.56 11.99 580.02 9.57 577.16 8.03 573.86 9.79 569.89 14.2 567.03 19.04 565.27 25.43 563.29 32.03 561.31 38.86 559.54 46.12 557.56 52.51 556.24 57.13 556.24 59.99 556.24 65.06 556.24 72.77 562.63 75.63 567.03 77.83 573.86 80.25 578.26 80.25 581.56 79.15 581.56"/><path class="cls-6" d="M633.74,683.21v46.24l-2.64,5.95v28.4l-1.54,4.84-2.91,2.43-1.93,2.42s1.1,1.32,0,2-1.76,3.08-1.76,3.08v5.63l8.58-2.33,6.39-1.32h12.55l7.71,6.39,2.86,4.4,2.2,6.83,2.42,4.4,1.67-2.42V684.2Z" transform="translate(-585.42 -224.29)"/><polygon class="cls-6" points="89.72 459.91 81.92 522.11 81.92 556.24 122.53 556.24 120.1 539.73 115.15 522.11 116.14 508.08 120.1 482.92 120.1 459.91 89.72 459.91"/><polygon class="cls-1" points="122.53 556.24 122.53 574.08 81.92 575.84 81.92 556.24 122.53 556.24"/></svg>