<svg id="Layer_1" data-name="Layer 1" xmlns="http://www.w3.org/2000/svg" viewBox="0 0 192.45 702.37"><defs><style>.cls-1{stroke:#fff;stroke-miterlimit:10;}</style></defs><polyline class="cls-1" points="18.45 630.06 24.43 1.85 36.4 22.79 45.37 28.77 48.36 40.74 54.35 43.73 60.33 49.72 66.31 52.71 69.3 58.69 75.29 61.68 78.28 70.66 81.27 73.65 84.26 76.64 87.25 85.61 93.23 91.6 96.23 97.58 111.18 576.21 168.02 579.2 179.99 588.18 188.96 609.12 191.95 633.05 191.95 649.24 147.08 668.95 108.19 686.89 78.28 701.85 51.35 698.86 27.42 674.93 9.47 674.93 0.5 665.96 0.5 644.8 6.48 636.04 12.47 633.05"/></svg>