<?xml version="1.0" encoding="utf-8"?>
<!-- Generator: Adobe Illustrator 24.2.0, SVG Export Plug-In . SVG Version: 6.00 Build 0)  -->
<svg version="1.1" id="Layer_1" xmlns="http://www.w3.org/2000/svg" xmlns:xlink="http://www.w3.org/1999/xlink" x="0px" y="0px"
	 viewBox="0 0 595.28 841.89" style="enable-background:new 0 0 595.28 841.89;" xml:space="preserve">
<path d="M299.29,96.69c0-7.63,0-15.27,0-22.9l1.5-2.2V32.48c0.02-0.3,0.09-0.76,0.31-1.27c0.18-0.44,0.33-0.79,0.67-1.01
	c0.65-0.43,1.52-0.06,1.65,0v49.1l1.19,1.38l-0.23,28.04l1.08,0.8l-0.51,21.67c0.04-0.03,0.1-0.07,0.17-0.12
	c0.48-0.29,1.36-0.51,1.9-0.03c0.33,0.28,0.4,0.69,0.42,0.78c0.04,0.21,0.01,0.39-0.01,0.5l-0.28,48.26
	c0.07,0.03,0.19,0.08,0.32,0.15c0.62,0.31,1.23,0.62,1.38,1.16c0.01,0.03,0.01,0.03,0.01,0.64c0,0.36,0,0.65,0,0.84v37.53
	c0.07,0.05,0.19,0.13,0.34,0.24c2.88,2.04,3.41,2.79,3.49,3.35c0.01,0.06,0.05,0.39,0.06,0.83c0.01,0.31,0.01,0.57,0,0.73v52.44
	c0.08,0.02,0.21,0.06,0.36,0.12c0.67,0.25,1.23,0.46,1.43,0.91c0.06,0.15,0.07,0.43,0.09,1c0.01,0.2,0,0.37,0,0.48v62.02
	c0.07,0.04,0.2,0.1,0.34,0.17c4.78,2.41,7.27,3.66,7.5,5.47c0.01,0.1-0.01,0.01-0.01,2.53c0,0.5,0,0.91,0,1.17v124.16
	c0.06,0.02,0.19,0.06,0.36,0.11c0,0,8.02,2.46,8.67,3.43c0.17,0.25,0.21,0.52,0.21,0.52c0.02,0.15,0.02,0.28,0,0.38v111.67
	c0.06,0,0.14,0.01,0.25,0.02c6.48,0.59,7.23,1.17,7.41,1.72c0.01,0.04,0.02,0.26,0.02,0.71c0.02,0.99,0.01,1.79,0,2.32l0.18,89.65
	c0,0,3.44,0.15,7.39,0.78c0.24,0.04,0.74,0.12,0.96,0.5c0.22,0.36,0.09,0.81,0,1.06v71.08h10.1v8.08h9.73v8.26h21.48v24.96H206.04
	v-25.88h18.59v-7.62h10.05v-7.92h11.01l1.24-95.7c-0.02-0.41-0.02-1.03,0.14-1.74c0,0,0.11-0.51,0.28-0.92
	c0.39-0.97,3.75-1.73,8.26-1.61l1.24-96.79c-0.02-0.41-0.04-1,0-1.72c0.03-0.43,0.06-0.76,0.07-0.79c0.19-1.43,7.67-3.08,8.05-3.17
	L266,445.87c-0.01-0.36-0.02-0.91,0-1.58c0.04-1.48,0.19-2.61,0.21-2.75c0.25-1.66,4.18-3.79,9.43-5.37l0.96-135.6
	c-0.02-0.42-0.03-1.04,0-1.79c0,0,0.07-1.53,0.34-2.89c0.35-1.73,3.39-5.98,8.74-10.26l0.53-31.39c-0.08-1-0.09-2.2,0.09-3.53
	c0.35-2.65,1.27-4.72,2.02-6.06l0.6-31.5c-0.05-0.58-0.04-1.23,0.07-1.93c0.51-3.28,2.91-5.33,3.85-6.06l0.46-53.3
	c0-0.32-0.01-0.81,0-1.4c0.01-0.68,0.02-1.2,0.02-1.26c0.04-1.23,1.76-3.38,2.8-4.59c0.22-10.55-0.03-18.11-0.32-23.22
	c-0.01-0.19-0.01-3.57,0-10.33c0-4.35,0.04-7.54,1.65-11.15C298.09,98.49,298.78,97.4,299.29,96.69z"/>
</svg>
