<?xml version="1.0" encoding="utf-8"?>
<!-- Generator: Adobe Illustrator 24.2.0, SVG Export Plug-In . SVG Version: 6.00 Build 0)  -->
<svg version="1.1" id="Layer_1" xmlns="http://www.w3.org/2000/svg" xmlns:xlink="http://www.w3.org/1999/xlink" x="0px" y="0px"
	 viewBox="0 0 595.28 841.89" style="enable-background:new 0 0 595.28 841.89;" xml:space="preserve">
<style type="text/css">
	.st0{fill:#FFFFFF;}
</style>
<g>
	<path d="M463.87,813.48v-21.99l-48.19-9.54c0.31-1.29,0.75-3.2,1.26-5.52c5.69-26.36,5.67-46.62,5.77-60.99
		c0.36-50.47,2.3-42.08,1.51-68.52c-0.6-20.12-1.48-46.19-7.53-79.82c-1.79-9.98-8.41-44.93-24.85-88.1
		c-2.29-6.02-12.94-33.65-27.11-59.49c-12.35-22.52-18.52-33.79-22.59-37.9c-0.58-0.59-2.78-2.75-4.02-6.28
		c-2.33-6.63,0.51-12.99,1-14.06c2.37-5.11,7.19-9.63,12.8-11.38c2.38-0.74,7.03-1.64,13.72-3.68c0.96-0.29,2.9-0.91,3.51-2.51
		c0.66-1.72-0.56-3.66-1-4.35c-3.51-5.53-14.42-6.83-15.48-6.94c-16.23-1.78-35.8,2.61-43.93,4.64c-1.09-0.98-2.71-2.45-4.64-4.27
		c-14.39-13.49-23.42-24.6-27.99-30c-14.61-17.25-28.89-29.65-34.64-34.64c-8.71-7.56-21.85-17.98-39.66-28.61v-51.96h-11.55v52.46
		H185v137.13c-0.96-0.41-2.4-1.01-4.14-1.72c-7.16-2.88-11.18-4.5-14.93-5.4c-8.87-2.12-16.32-0.23-20.71,0.88
		c-8.21,2.07-10.7,4.93-11.67,6.28c-0.74,1.01-2.21,3.1-2.13,6.02c0.09,3.56,2.39,5.93,3.01,6.53L185,413.72v367.22l-37.9,11.55
		v20.99H463.87z"/>
	<g>
		<path class="st0" d="M305.98,763.62c18.07,0,36.14,0,54.22,0c0.58-2.37,1.4-5.8,2.26-9.96c4.03-19.43,5.05-34.83,5.69-47.86
			c1.17-23.72,2.01-40.84,1.34-67.27c-0.55-21.57-1.43-52.21-7.53-92.03c-3.82-24.96-7.93-51.02-19.08-84.34
			c-3.43-10.26-11.65-33.54-26.1-61.75c-9.09-17.75-18.15-32.56-25.85-44.18c-10.98-15.3-19.91-27.8-27.53-38.65
			c-3.11-4.43-8.03-11.48-15.73-20.08c-3.24-3.62-6.29-7.06-10.71-11.04c-1.36-1.22-2.5-2.19-3.26-2.82
			c0.33,1.26,0.88,3.11,1.76,5.27c2.36,5.8,5.37,9.59,6.34,10.86c1.87,2.44,5.03,8.61,11.36,20.96c9.87,19.26,20.01,47.7,22.97,56.1
			c7.78,22.1,13.3,37.76,19.08,60.24c7.68,29.89,11.08,53.32,13.55,70.78c2.51,17.67,3.64,30.05,5.52,50.7
			c3.48,38.06,5.21,57.08,5.02,80.32c-0.23,27.44-2.67,48.76-5.02,69.28c-2.43,21.21-5.28,39.15-7.7,52.71L305.98,763.62z"/>
		<path class="st0" d="M248,386.37c-1.72-8.5-4.12-17.88-7.53-27.86c-5.65-16.54-12.55-30.38-19.08-41.42v69.28H248z"/>
		<path class="st0" d="M259.3,421c-0.44-2.51-1.07-5.3-2.01-8.28c-0.63-2-1.31-3.84-2.01-5.52H221.4V421H259.3z"/>
		<path class="st0" d="M266.08,448.36c0.03-2.67-0.18-6.03-1-9.79c-1.16-5.29-3.13-9.44-4.77-12.3H221.4v22.09H266.08z"/>
		<path class="st0" d="M271.1,474.22c-0.2-3.07-0.64-6.64-1.51-10.54c-0.85-3.84-1.93-7.2-3.01-10.04H221.4v20.58H271.1z"/>
		<path class="st0" d="M277.12,501.83c-0.16-2.92-0.65-6.75-2.01-11.04c-1.17-3.71-2.67-6.74-4.02-9.04h-49.7v20.08H277.12z"/>
		<polygon class="st0" points="279.63,518.9 277.12,510.86 221.4,510.86 221.4,516.89 		"/>
		<rect x="221.4" y="540.48" class="st0" width="61.75" height="10.54"/>
		<polygon class="st0" points="285.4,578.13 283.14,557.55 221.4,557.55 221.4,578.13 		"/>
		<polygon class="st0" points="287.66,604.74 285.4,584.91 221.4,584.91 221.4,604.74 		"/>
		<rect x="221.4" y="612.77" class="st0" width="66.27" height="19.83"/>
		<rect x="221.4" y="638.37" class="st0" width="66.27" height="10.79"/>
		<rect x="221.4" y="669" class="st0" width="67.27" height="10.29"/>
		<rect x="221.4" y="685.56" class="st0" width="67.27" height="22.09"/>
		<rect x="221.4" y="713.42" class="st0" width="66.27" height="22.09"/>
		<polygon class="st0" points="285.15,763.62 287.66,741.03 221.4,741.03 221.4,763.62 		"/>
	</g>
</g>
</svg>
