<svg xmlns="http://www.w3.org/2000/svg" viewBox="0 0 719 479.04"><defs><style>.cls-1{stroke:#000;stroke-miterlimit:10;}</style></defs><g id="Layer_2" data-name="Layer 2"><g id="Layer_2-2" data-name="Layer 2"><polygon class="cls-1" points="0.5 476.54 0.5 469.63 8.5 458.54 8.5 448.22 11.5 433.54 18.5 399.54 22.5 361.54 21.5 326.54 33.5 310.54 55.5 273.54 68.5 235.54 58.5 251.54 51.5 258.54 44.5 269.54 28.5 286.54 30.5 276.54 24.5 275.54 27.5 263.54 34.5 259.56 42.5 246.54 34.5 246.87 50.5 232.54 60.5 225.54 62.5 218.54 70.5 210.54 70.5 195.62 82.5 184.54 86.5 176.54 99.5 136.54 126.5 94.54 150.5 72.54 175.5 62.54 190.45 62.54 219.5 52.6 234.5 24.54 251.5 14.54 273.5 2.54 294.41 2.54 311.5 16.54 323.5 27.54 351.5 33.54 363.5 36.54 392.5 39.54 410.5 46.54 427.5 57.54 438.5 66.54 450.5 85.54 455.5 92.54 491.5 112.54 509.5 114.54 527.5 112.54 542.5 106.54 550.5 102.54 562.5 79.54 570.5 58.54 582.5 40.54 589.5 34.54 598.5 22.54 602.5 10.54 606.5 8.54 604.84 2.54 611.5 0.54 619.5 4.54 623.5 5.54 632.5 3.54 640.5 6.54 644.5 10.54 649.5 11.54 671.5 9.54 686.5 12.54 696.5 13.54 703.5 16.54 707.5 22.54 714.5 28.54 718.5 36.54 718.5 42.45 709.5 43.54 709.5 46.54 714.5 49.54 714.5 54.54 710.5 56.54 704.5 53.54 700.5 50.54 690.5 47.54 685.5 52.54 682.5 54.54 672.5 56.54 658.5 65.54 652.5 70.54 650.55 75.7 645.5 74.54 640.66 75.7 639.5 73.54 635.5 74.54 630.5 90.54 626.5 93.54 622.5 94.54 614.5 112.54 605.5 126.54 579.82 152.04 562.5 165.54 532.5 180.54 510.5 186.54 465.5 185.54 460.5 195.54 453.5 205.54 454.5 213.54 462.5 237.54 495.5 290.54 504.5 299.54 508.5 303.54 508.5 311.54 506.5 329.54 504.5 336.54 505.5 381.54 509.5 404.54 512.5 408.54 511.5 419.54 517.5 434.54 528.5 439.54 531.5 445.54 530.5 448.54 525.5 449.54 522.5 452.54 510.5 451.54 489.5 437.54 489.5 432.54 492.5 430.54 495.5 422.54 491.5 410.54 488.5 338.54 472.5 299.54 465.5 287.54 424.5 239.54 419.5 236.54 411.5 234.54 404.5 226.54 404.5 213.54 387.5 227.54 377.5 261.54 368.5 296.54 364.5 316.54 364.5 326.54 365.5 336.54 361.5 345.54 359.5 353.61 353.5 364.54 349.5 416.54 350.5 423.54 354.5 430.54 355.5 439.54 359.5 444.13 365.5 444.54 367.5 447.54 374.5 444.54 378.5 452.54 376.5 456.54 362.5 459.54 334.5 456.54 328.5 455.54 328.5 450.54 332.5 443.54 328.5 436.54 330.5 427.54 337.5 386.54 339.5 353.54 336.5 327.54 342.5 305.54 347.5 271.54 350.5 231.54 343.5 227.54 330.5 228.54 304.5 234.54 282.5 235.54 250.5 231.54 219.5 222.33 203.5 213.54 205.5 220.54 205.5 228.54 211.5 236.54 211.5 243.54 206.5 254.54 202.5 267.54 198.5 274.54 192.5 280.54 190.5 307.54 184.5 342.54 185.5 362.54 190.5 379.54 201.5 403.54 219.5 433.07 232.5 449.54 238.5 453.54 248.5 455.54 259.5 461.54 267.5 461.54 268.5 466.54 268.5 469.54 257.5 472.54 242.5 472.54 224.5 471.54 221.5 467.54 219.5 464.8 219.5 461.01 216.5 459.54 216.5 454.54 186.5 408.54 160.5 375.54 147.5 361.54 150.5 349.54 156.5 296.54 150.5 255.54 141.18 238.54 132.5 205.54 118.5 243.54 115.5 254.54 101.5 266.54 82.5 285.54 55.5 329.54 53.5 340.54 44.5 360.54 41.5 364.54 40.5 371.54 36.5 376.54 26.5 435.54 25.5 440.54 28.5 444.54 28.5 453.54 27.5 458.54 29.5 464.54 32.5 467.54 37.5 467.54 41.5 471.54 43.09 476.54 37.5 478.54 23.29 478.54 4.95 478.54 0.5 476.54"/></g></g></svg>