<svg id="Layer_2" data-name="Layer 2" xmlns="http://www.w3.org/2000/svg" viewBox="0 0 718 478"><defs><style>.cls-1{fill:#a67c52;}.cls-2{fill:#935f32;}.cls-3{fill:#250f04;}.cls-4{fill:#563927;}.cls-5{fill:#c39a68;}.cls-6{fill:#e3b77d;}.cls-7{fill:#f1cc9b;}.cls-8{fill:#fee0b2;}.cls-9{fill:#100000;}</style></defs><polygon class="cls-1" points="0 476 0 469.09 8 458 8 447.69 11 433 18 399 22 361 21 326 33 310 55 273 68 235 58 251 51 258 44 269 28 286 30 276 24 275 27 263 34 259.02 42 246 34 246.33 50 232 60 225 62 218 70 210 70 195.08 82 184 86 176 99 136 126 94 150 72 175 62 189.95 62 219 52.07 234 24 251 14 273 2 293.91 2 311 16 323 27 351 33 363 36 392 39 410 46 427 57 438 66 450 85 455 92 491 112 509 114 527 112 542 106 550 102 562 79 570 58 582 40 589 34 598 22 602 10 606 8 604.34 2 611 0 619 4 623 5 632 3 640 6 644 10 649 11 671 9 686 12 696 13 703 16 707 22 714 28 718 36 718 41.91 709 43 709 46 714 49 714 54 710 56 704 53 700 50 690 47 685 52 682 54 672 56 658 65 652 70 650.05 75.17 645 74 640.16 75.17 639 73 635 74 630 90 626 93 622 94 614 112 605 126 579.32 151.5 562 165 532 180 510 186 465 185 460 195 453 205 454 213 462 237 495 290 504 299 508 303 508 311 506 329 504 336 505 381 509 404 512 408 511 419 517 434 528 439 531 445 530 448 525 449 522 452 510 451 489 437 489 432 492 430 495 422 491 410 488 338 472 299 465 287 424 239 419 236 411 234 404 226 404 213 387 227 377 261 368 296 364 316 364 326 365 336 361 345 359 353.07 353 364 349 416 350 423 354 430 355 439 359 443.59 365 444 367 447 374 444 378 452 376 456 362 459 334 456 328 455 328 450 332 443 328 436 330 427 337 386 339 353 336 327 342 305 347 271 350 231 343 227 330 228 304 234 282 235 250 231 219 221.8 203 213 205 220 205 228 211 236 211 243 206 254 202 267 198 274 192 280 190 307 184 342 185 362 190 379 201 403 219 432.53 232 449 238 453 248 455 259 461 267 461 268 466 268 469 257 472 242 472 224 471 221 467 219 464.26 219 460.48 216 459 216 454 186 408 160 375 147 361 150 349 156 296 150 255 140.68 238 132 205 118 243 115 254 101 266 82 285 55 329 53 340 44 360 41 364 40 371 36 376 26 435 25 440 28 444 28 453 27 458 29 464 32 467 37 467 41 471 42.59 476 37 478 22.79 478 4.45 478 0 476"/><polygon class="cls-2" points="198.5 118.5 203 139.13 200.75 160.02 200.75 176.95 203 196.76 209.5 213.5 240 223.78 263.5 227.5 286.5 229.5 302.5 227.5 319.5 224.5 313.5 218.5 317.5 210.5 306.5 194.5 296.5 177.5 277.5 161.5 259 151.5 234.65 136.35 221.5 127.5 198.5 118.5"/><polygon class="cls-3" points="117.5 124.5 115.5 140.5 115.5 154.98 119 170.47 120.5 182.5 127.5 194.5 132 205 123.75 215.85 110.5 226.5 110.5 203.25 105.5 186.5 92.5 206.5 67.53 231 58.5 243.5 46.5 254.5 36.5 268.5 48.5 241.5 68.5 217.5 75.5 198.5 82 184 99.5 153.5 102.1 136.35 113.5 121.5 117.5 124.5"/><polygon class="cls-4" points="226.5 46.5 237.5 26.5 255.5 15.5 271.5 7.5 283.5 3.5 293.5 5.5 304.5 13.5 314.98 25 324.5 31.5 302.5 22.5 290.5 17.5 278.5 18.5 275.5 20.99 259 28.19 253.5 34.5 240 41.71 226.5 46.5"/><polygon class="cls-5" points="195 126 195 180.31 203 213 203 234.37 195 239 192 253 192 268.52 189 285 189 303.09 184 326 184 335.55 181 304 176 287 172 276 172 255.87 174 241 162 233 160 223 178.5 230.78 179 222 160 182.94 144 162 141.82 151.5 127 137 119 138 144 99 164 78 177.66 75.17 186 84 192 98 195 126"/><polygon class="cls-6" points="359 89.35 346 112 342 116 329 105 324 98 311 99 304.55 102.67 304.55 110.43 292 113 275 109 248.48 102.67 240 99 262 126 286 138 317 136 331 142 338 156 345 168 352 182 352 194 336 202 321 212 320 218 342 209 348 215 361 223 365 220 370 212 377 201 386 180 386 165.65 398 145 409.11 156.17 421 174 436 209 453 226 457 231 448 197 457 179.14 464 156 453 116 431 81 390 51 352 41.71 356 60 350 60 344 59 344 69 359 89.35"/><polygon class="cls-7" points="464 104.1 475 149 490 173 515 178 546 170 570 155 593 133 609 109 614 94 611 78 600 66 601 50 595.02 50 589 61 580 72 573 80 570 95 562 110 525 119 505 122 486 117 464 104.1"/><polygon class="cls-8" points="645 19 648 15 643.49 15 643.49 14.02 647 13 653.38 13 661.79 16 665 17 669 15 672 17 673 21 676 24 678 27 687.96 27 690 30 695 32 698.28 32 696 29 705 28 702 26 697 24 695 21 696 19 698 19 702 20 703 22 700 22 698.6 22.5 700 24 703 24 707 25 709 26 710 27 712 30 709 35 707 43 698 39 690 36 693 40 691 41 685 37 684 40 681.26 43 675 44 666.36 44 675 41 657.21 44 656 46 668 48 671.37 48 667.32 50 674 51 672 53 665 56 658 58 655 54 651 54 648 50 643 45 641 41 649 41 651 39 654 39 657 36 662.22 35.5 664 32 664 27 662 30 661 27 662 24 662 21 660 19 656 18 655 19 654 20 657 21 658 23 655 24 650 24 647 22 645 19"/><polygon class="cls-9" points="642.5 25.5 651.5 26.5 658.5 24.5 659.68 25.5 659.68 28.11 658.5 30.5 655.5 32.5 653.5 34.5 649.25 35.5 648.5 34.5 649.5 32.5 647.2 30 643.5 29.5 642.5 25.5"/></svg>