<?xml version="1.0" encoding="utf-8"?>
<!-- Generator: Adobe Illustrator 24.2.0, SVG Export Plug-In . SVG Version: 6.00 Build 0)  -->
<svg version="1.1" id="Layer_1" xmlns="http://www.w3.org/2000/svg" xmlns:xlink="http://www.w3.org/1999/xlink" x="0px" y="0px"
	 viewBox="0 0 595.28 841.89" style="enable-background:new 0 0 595.28 841.89;" xml:space="preserve">
<style type="text/css">
	.st0{fill:#FFFFFF;}
</style>
<g>
	<g>
		<path d="M327.93,806.07c0,0-5.61-332.25,0-332.25s31.99,0,31.99,0v-64.36h-31.43V284.12l-2.2-0.49v-77.38l5,4.07v52.62l6.73,7.72
			v35.08l93.73,102.43v404.65h-23.01v-80.82l-60.61-3.37v78.01L327.93,806.07z"/>
		<path class="st0" d="M371.61,419.47c0.37,0,5.14,0,5.14,0v53.88h-5.14V419.47z"/>
		<rect x="380.5" y="419.47" class="st0" width="4.4" height="53.88"/>
		<rect x="388.82" y="419.47" class="st0" width="4.4" height="53.88"/>
		<rect x="397.15" y="419.47" class="st0" width="4.86" height="53.88"/>
		<rect x="405.66" y="419.47" class="st0" width="4.3" height="53.88"/>
		<polyline points="408.75,812.81 364.41,809.07 364.41,799.71 408.75,802.52 408.75,796.35 365.91,794.29 365.91,789.61 
			408.75,791.67 408.75,786.43 367.03,784.75 367.03,781 408.75,782.69 408.75,777.45 366.84,775.95 366.84,771.46 408.75,773.15 
			408.75,767.35 365.91,767.35 365.91,762.11 408.75,763.23 408.75,758.18 366.65,757.25 366.65,752.76 408.75,754.07 
			408.75,749.01 366.84,748.08 366.65,743.59 408.75,743.59 408.75,740.03 366.65,738.72 366.65,734.42 408.75,735.92 		"/>
	</g>
	<g>
		<path d="M267.35,809.28c0,0,5.61-412.39,0-412.39s-31.99,0-31.99,0v-79.88h31.43V161.44l2.2-0.61V64.78l-5,5.05v65.31l-6.73,9.58
			v43.54l-93.73,127.13v502.25h23.01V717.33l60.61-4.18v96.83L267.35,809.28z"/>
		<path class="st0" d="M223.66,329.44c-0.37,0-5.14,0-5.14,0v66.87h5.14V329.44z"/>
		<rect x="210.38" y="329.44" class="st0" width="4.4" height="66.87"/>
		<rect x="202.06" y="329.44" class="st0" width="4.4" height="66.87"/>
		<rect x="193.26" y="329.44" class="st0" width="4.86" height="66.87"/>
		<rect x="185.31" y="329.44" class="st0" width="4.3" height="66.87"/>
		<polyline points="186.53,817.64 230.87,813 230.87,801.39 186.53,804.87 186.53,797.21 229.37,794.65 229.37,788.85 186.53,791.4 
			186.53,784.9 228.25,782.81 228.25,778.17 186.53,780.26 186.53,773.76 228.43,771.9 228.43,766.33 186.53,768.42 186.53,761.22 
			229.37,761.22 229.37,754.72 186.53,756.11 186.53,749.84 228.62,748.68 228.62,743.11 186.53,744.73 186.53,738.46 228.43,737.3 
			228.62,731.73 186.53,731.73 186.53,727.32 228.62,725.69 228.62,720.35 186.53,722.21 		"/>
	</g>
</g>
</svg>
