<?xml version="1.0" encoding="utf-8"?>
<!-- Generator: Adobe Illustrator 24.2.0, SVG Export Plug-In . SVG Version: 6.00 Build 0)  -->
<svg version="1.1" id="Layer_1" xmlns="http://www.w3.org/2000/svg" xmlns:xlink="http://www.w3.org/1999/xlink" x="0px" y="0px"
	 viewBox="0 0 1920 1080" style="enable-background:new 0 0 1920 1080;" xml:space="preserve">
<style type="text/css">
	.st0{fill:#ED1C24;}
	.st1{fill:#FFFFFF;}
	.st2{fill:#129F49;}
</style>
<g>
	<path class="st0" d="M511.21,635.3c10.69,0,81.4,3.35,81.4,3.35l86.48-70.71l39.57,14.97h42.79l229.94,416.06l-472.73-79.15
		l-82.37-191.43L286.58,603.26l-41.7-126.19c0,0,25.66-14.97,29.95-16.04c4.28-1.06,45.98,0,45.98,0l40.64-17.1l6.41,12.85
		l32.07,10.69l3.22,25.66l-39.57,53.48l25.66-2.12l16.04,10.69l21.38-33.17l17.1,3.22l7.5,35.29l22.48-7.5l12.85,7.5l-3.22,47.04
		L511.21,635.3z"/>
	<path class="st1" d="M918.7,867.4l542.21-231V625.7h36.35l20.32-17.1l39.57,6.41l25.66-21.38l-10.69-21.38l-42.79-33.03l11.75-24.7
		l-10.69-24.6l-2.12-96.25l-7.5-10.69l10.69-22.48L1136.82,518.8l29.95,3.22v9.63l-22.48,17.1c0,0-72.74-7.5-68.46-2.12
		c4.28,5.35,8.57,20.32,8.57,20.32l-38.51,26.73H940.01l-139.67,59.76L918.7,867.4z"/>
	<polygon class="st2" points="761.47,582.91 844.07,578.1 848.88,594.93 940.08,593.6 800.41,653.36 	"/>
	<path d="M918.7,867.4l72.71,131.57c0,0,293.05,49.2,296.24,49.2c3.22,0,45.98,0,45.98,0v-22.48l50.26-47.04l16.04-31.01
		l-8.57-95.18l23.54-20.32l17.1-18.19c0,0,8.57-41.7,11.75-44.92c3.22-3.22,29.95-31.01,29.95-31.01l-12.85-101.59L918.7,867.4z"/>
	<path class="st2" d="M1136.85,518.74l-14.44-3.22v-18.46l28.09-15.24l21.65,14.44l32.07-14.44l12.02-74.6l19.26-10.42h13.64
		l134.76-120.31l7.2-22.48l62.58-46.51l6.41-28.09l17.66-12.02c0,0,82.63-77.82,84.23-81.01c1.59-3.22,20.85-54.55,20.85-54.55
		l47.34,23.27l-11.22,105.08l42.53-0.8l13.64,34.49v111.48L1136.85,518.74z"/>
	<polygon class="st1" points="1675.08,305.36 1675.08,348.69 1649.42,396.79 1605.3,404.83 1577.24,378.37 1577.24,360.44 
		1604.27,333.45 	"/>
</g>
</svg>
