<svg id="Layer_1" data-name="Layer 1" xmlns="http://www.w3.org/2000/svg" viewBox="0 0 797.67 638.84"><defs><style>.cls-1{stroke:#fff;stroke-miterlimit:10;}</style></defs><path class="cls-1" d="M1042.18,670.59,1002.76,667l-3.58-78.84-3.59-157.66V186.84l3.59-14.34h12.06l20.19-3.58L1045.76,151V118.75l-71.67-21.5-96.75-21.5L787.76,65H705.87L587.09,68.58l-129,17.92-96.76,28.67-25.08,17.91-28.67,21.5L304,168.92l3.58,10.75V258.5L304,656.26l-28.67,14.33L261,684.93l125.42,10.75h138l98.52,7.16h252.6l134.41-14.33h46.58Zm-473-490.92L562,307.41v59.93l-3.58,145.58L562,656.26l-93.16,3.64V566.67L476,469.92,479.59,323l7.16-150.5,4.53-11.37,45.64-3,32.25,3ZM765.55,656.26H744.76l-3.59-100.34L725.93,161.13l26-6.55,60.92,3.59V272.84l4.52,137.67,6.23,109.58,10.75,136.17Z" transform="translate(-259.89 -64.5)"/></svg>