<svg id="Layer_1" data-name="Layer 1" xmlns="http://www.w3.org/2000/svg" viewBox="0 0 1261.41 1011.4"><path d="M1551.68,1008.26l-62.5-5.68-5.68-125-5.68-250V241.19l5.68-22.73h19.13l32-5.68,22.73-28.41V133.23L1443.73,99.14,1290.31,65.05l-142-17H1018.42L830.07,53.68,625.51,82.09,472.1,127.55,432.32,156l-45.45,34.09-5.69,22.73,5.69,17.05v125l-5.69,630.71-45.45,22.72L313,1031l198.87,17H730.66l156.23,11.36h400.53l213.13-22.73h73.86Zm-750-778.43L790.29,432.38v95l-5.68,230.84,5.68,227.29-147.73,5.77V843.49l11.36-153.42,5.68-233L671,218.46l7.17-18,72.38-4.7,51.14,4.7ZM1113,985.54h-33l-5.69-159.1-24.16-626,41.21-10.38,96.59,5.68V377.56l7.16,218.31,9.89,173.75,17.05,215.92Z" transform="translate(-313 -48)"/></svg>