<svg id="Layer_1" data-name="Layer 1" xmlns="http://www.w3.org/2000/svg" viewBox="0 0 1179.01 263.56"><defs><style>.cls-1{stroke:#fff;stroke-miterlimit:10;}</style></defs><path class="cls-1" d="M362.48,289.5,147.34,261l-2.62,207.27,217.76-7.87ZM163.08,428.18V421l10.5-3.08V303l2.62-5.25L210,303l2.72,125.21Z" transform="translate(-86.5 -226.19)"/><path class="cls-1" d="M1215.15,339.7l-21,2.63-186.27,15.74L992.14,358v7.94l-5.24-7.87-21-15.74L931.8,316.09l-36.73-21L861,279.36l-28.86-10.5L803.24,261l-28.85-5.24-31.49-2.63H693.05l-26.23,2.63-21,2.62-42,10.49L580.24,282,638,289.85v73.46l2.62,52.48,28.86,8.74v35.86l-5.25,1.94V426.28l-28.86-6V289.85L87,226.75V473.51l57.72,7.87,49.85,7.87L342,473.51,769.14,463V442H968.53l228.26,13.12,15.74-7.87,49.85-13.12,2.62-78.71ZM367.73,464.31l-225.63,9.2V255.71l225.63,28.9Zm550.14-91.89-51.66,4v31.49l-42,2.62v13.12L805.87,421l-2.63-21-13.11-5.25-10.5-18.37V365.94l-63,2.62-7.87-2.62-60.35-2.63V358l269.42,5.31Z" transform="translate(-86.5 -226.19)"/></svg>