<svg id="Layer_1" data-name="Layer 1" xmlns="http://www.w3.org/2000/svg" viewBox="0 0 1768 393.97"><path d="M484.45,436.25,161.57,393.47l-3.94,311.07,326.82-11.81ZM185.19,644.39V633.66L200.94,629V456.47l3.94-7.88,50.66,7.88,4.09,187.92Z" transform="translate(-71 -342.07)"/><path d="M1764.18,511.6l-31.5,3.93-279.57,23.63-23.62-.1V551l-7.88-11.81-31.5-23.63-51.19-39.37-55.13-31.5L1232.6,421l-43.31-15.75L1146,393.47l-43.32-7.88-47.25-3.94H980.59l-39.37,3.94-31.5,3.94-63,15.75L811.28,425l86.62,11.81V547l3.94,78.76,43.32,13.13v53.81l-7.88,2.91v-54.1l-43.31-9V436.78L71,342.07V712.42l86.63,11.81L232.44,736l221.32-23.62,641-15.76v-31.5h299.26l342.57,19.69L1760.25,673l74.81-19.69L1839,535.22Zm-1271.85,187-338.64,13.8V385.53l338.64,43.38ZM1318,560.7l-77.54,6V614l-63,3.94V637.6l-27.57-3.94-3.93-31.5-19.69-7.87-15.75-27.57V551L1016,554.91,1004.22,551,913.65,547v-8L1318,547Z" transform="translate(-71 -342.07)"/></svg>