<svg xmlns="http://www.w3.org/2000/svg" viewBox="0 0 450.01 101.12"><defs><style>.cls-1{stroke:#fff;stroke-miterlimit:10;}</style></defs><g id="Layer_2" data-name="Layer 2"><g id="Lourve_AD" data-name="Lourve AD"><path class="cls-1" d="M105.5,24.48l-82-10.87-1,79,83-3Zm-76,52.86V74.61l4-1.17V29.61l1-2,12.86,2,1,47.73Z"/><path class="cls-1" d="M430.5,43.61l-8,1-71,6-6,0v3l-2-3-8-6-13-10-14-8-13-6-11-4-11-3-11-2-12-1h-19l-10,1-8,1-16,4-9,5,22,3v28l1,20,11,3.34V89.61l-2,.74V76.61l-11-2.29V24.61L.5.56V94.61l22,3,19,3,56.21-6,162.79-4v-8h76l87,5,6-3,19-5,1-30Zm-323,47.5-86,3.5v-83l86,11Zm209.69-35L297.5,57.61v12l-16,1v5l-7-1-1-8-5-2-4-7v-4l-24,1-3-1-23-1v-2l102.69,2Z"/></g></g></svg>