<svg xmlns="http://www.w3.org/2000/svg" viewBox="0 0 272.04 154"><defs><style>.cls-1{stroke:#fff;stroke-miterlimit:10;}</style></defs><g id="Layer_2" data-name="Layer 2"><g id="Mosque"><polygon class="cls-1" points="0.5 149.5 0.5 141.79 2.5 137.5 5.42 137.5 7.5 135.5 6.5 121.5 9.43 121.5 9.43 123.98 11.5 124.5 12.5 127.5 12.5 132.76 12.5 137.02 16.5 137.5 15.5 141.5 16.5 143.79 18.5 140.5 19.5 138.5 23.5 137.5 24.5 137.5 24.5 132.37 24.5 128.27 28.5 128.5 28.5 124.38 24.5 124.5 24.5 120.5 29.5 119.5 34.5 120.5 41.5 120.5 41.5 116.5 44.5 115.5 44.5 111.53 49.13 111.53 47.5 106.5 47.5 103.5 50.5 102.5 52.5 96.5 50.5 94.5 56.5 94.5 53.5 87.5 54.5 84.5 56.5 81.54 58.5 78.5 60.5 76.5 63.5 75.5 64.5 71.5 65.5 68.5 66.5 72.5 67.5 75.5 69.5 75.5 70.5 76.5 72.5 78.5 74.5 81.5 75.5 85.5 75.5 81.19 76.5 80.5 75.5 75.5 74.5 73.5 75.5 69.5 77.5 61.5 79.5 56.5 83.5 52.5 87.5 51.5 91.5 50.5 94.5 46.5 94.5 42.64 97.38 42.64 98.5 45.5 99.5 48.5 102.5 49.5 104.5 46.5 105.5 44.5 110.5 44.5 111.5 47.5 111.5 52.56 111.5 58.89 113.5 61.5 113.5 69.38 114.5 73.5 114.5 65.62 116.5 60.5 119.5 57.5 123.5 54.5 128.5 52.5 131.5 51.5 131.5 43.46 133.5 44.5 133.5 48.8 133.5 51.97 136.5 52.5 139.5 54.5 141.5 56.5 143.5 57.5 144.5 59.5 146.5 61.5 148.5 64.5 150.5 70.5 151.5 75.5 151.5 79.75 150.5 82.5 149.5 86.5 149.5 89.5 149.5 93.5 149.5 96.5 150.5 92.5 152.5 89.5 155.5 87.5 159.5 86.5 160.5 81.75 161.5 81.5 162.5 84.5 162.5 86.56 167.5 88.5 169.5 91.5 171.5 93.5 173.2 96.07 174.5 99.5 175.5 103.5 176.5 106.5 180.5 106.5 180.5 102.2 182.5 102.5 182.5 98.46 184.5 97.5 183.5 93.5 183.5 88.5 183.5 81.5 184.5 79.21 186.5 78.5 186.5 76.41 183.5 76.5 183.5 74.5 183.5 69.5 184.5 71.5 186.5 70.92 186.5 67.98 184.5 65.5 185.5 63.5 185.5 61.5 189.5 60.5 193.5 60.5 196.5 61.5 198.5 63.5 198.5 66.5 197.5 68.5 197.5 73.5 199.5 73.5 199.5 72.39 201.5 72.5 201.5 74.13 199.5 76.5 196.5 78.5 199.5 78.5 200.5 81.5 197.5 82.5 197.5 84.5 196.5 97.5 198.5 99.5 198.5 102.5 198.5 106.5 196.5 109.5 196.5 114.5 196.5 119.5 199.5 119.5 199.5 115.5 203.5 114.5 204.5 116.5 204.5 120.78 209.5 120.5 209.5 111.16 207.5 108.5 207.5 101.5 209.5 100.33 209.5 82.5 207.5 80.5 207.5 73.5 208.5 71.5 208.5 63.5 207.5 61.5 208.5 59.5 208.5 44.5 205.5 42.5 205.5 36.5 207.5 34.5 207.5 30.5 206.5 27.5 206.5 24.5 208.5 21.5 208.5 19.5 207.5 17.5 207.5 13.5 209.5 9.5 211.5 6.5 212.5 3.5 213.5 0.5 215.5 0.5 216.5 4.5 218.5 8.5 219.5 11.5 220.5 13.5 220.5 15.5 219.5 18.5 223.5 21.5 223.5 25.48 221.5 27.5 221.5 30.5 225.5 34.5 225.5 40.18 223.5 42.5 223.5 47.5 223.5 55.5 226.5 58.5 226.5 65.5 225.5 70.5 227.5 73.5 227.5 78.5 226.5 81.5 226.5 87.5 226.5 98.5 228.5 100.5 228.5 107.5 226.5 109.5 226.5 119.5 228.5 121.5 242.5 119.5 246.5 120.5 251.5 120.5 257.5 124.5 267.5 123.5 271.5 125.5 269.5 143.5 266.5 146.5 245.5 148.5 222.5 153.5 192.5 151.5 79.5 149.5 71.5 151.5 34.5 148.5 0.5 149.5"/></g></g></svg>