<svg id="Layer_1" data-name="Layer 1" xmlns="http://www.w3.org/2000/svg" viewBox="0 0 1179.04 666.07"><defs><style>.cls-1{stroke:#fff;stroke-miterlimit:10;}</style></defs><polygon class="cls-1" points="0.5 648.18 0.5 614.66 9.19 596.02 21.88 596.02 30.93 587.33 26.58 526.47 39.33 526.47 39.33 537.25 48.31 539.51 52.66 552.55 52.66 575.41 52.66 593.94 70.05 596.02 65.7 613.41 70.05 623.38 78.74 609.06 83.09 600.37 100.48 596.02 104.83 596.02 104.83 573.72 104.83 555.89 122.21 556.9 122.21 539 104.83 539.51 104.83 522.12 126.56 517.78 148.29 522.12 178.72 522.12 178.72 504.74 191.76 500.39 191.76 483.15 211.88 483.15 204.8 461.27 204.8 448.23 217.84 443.88 226.54 417.8 217.84 409.11 243.92 409.11 230.88 378.68 235.23 365.64 243.92 352.76 252.62 339.56 261.31 330.86 274.35 326.51 278.7 309.13 283.05 296.09 287.39 313.47 291.74 326.51 300.43 326.51 304.78 330.86 313.47 339.56 322.17 352.6 326.51 369.98 326.51 351.26 330.86 348.25 326.51 326.51 322.17 317.82 326.51 300.43 335.21 265.66 343.9 243.92 361.29 226.54 378.68 222.19 396.06 217.84 409.11 200.46 409.11 183.66 421.61 183.66 426.49 196.11 430.84 209.15 443.88 213.5 452.57 200.46 456.92 191.76 478.65 191.76 483 204.8 483 226.79 483 254.32 491.7 265.66 491.7 299.92 496.04 317.82 496.04 283.57 504.74 261.31 517.78 248.27 535.16 235.23 556.9 226.54 569.94 222.19 569.94 187.22 578.63 191.76 578.63 210.45 578.63 224.21 591.67 226.54 604.71 235.23 613.41 243.92 622.1 248.27 626.45 256.96 635.14 265.66 643.84 278.7 652.53 304.78 656.88 326.51 656.88 344.98 652.53 356.94 648.18 374.33 648.18 387.37 648.18 404.76 648.18 417.8 652.53 400.41 661.22 387.37 674.26 378.68 691.65 374.33 696 353.69 700.35 352.6 704.69 365.64 704.69 374.61 726.43 383.02 735.12 396.06 743.81 404.76 751.21 415.92 756.85 430.84 761.2 448.23 765.55 461.27 782.93 461.27 782.93 442.59 791.63 443.88 791.63 426.32 800.32 422.15 795.98 404.76 795.98 383.02 795.98 352.6 800.32 342.65 809.02 339.56 809.02 330.45 795.98 330.86 795.98 322.17 795.98 300.43 800.32 309.13 809.02 306.63 809.02 293.85 800.32 283.05 804.67 274.35 804.67 265.66 822.06 261.31 839.45 261.31 852.49 265.66 861.18 274.35 861.18 287.39 856.83 296.09 856.83 317.82 865.53 317.82 865.53 313.02 874.22 313.47 874.22 320.57 865.53 330.86 852.49 339.56 865.53 339.56 869.87 352.6 856.83 356.94 856.83 365.64 852.49 422.15 861.18 430.84 861.18 443.88 861.18 461.27 852.49 474.31 852.49 496.04 852.49 517.78 865.53 517.78 865.53 500.39 882.91 496.04 887.26 504.74 887.26 523.36 908.99 522.12 908.99 481.52 900.3 469.96 900.3 439.53 908.99 434.46 908.99 356.94 900.3 348.25 900.3 317.82 904.65 309.13 904.65 274.35 900.3 265.66 904.65 256.96 904.65 191.76 891.61 183.07 891.61 156.99 900.3 148.29 900.3 130.91 895.95 117.86 895.95 104.83 904.65 91.78 904.65 83.09 900.3 74.4 900.3 57.01 908.99 39.62 917.69 26.58 922.03 13.54 926.38 0.5 935.08 0.5 939.42 17.89 948.12 35.27 952.46 48.31 956.81 57.01 956.81 65.7 952.46 78.74 969.85 91.78 969.85 109.08 961.16 117.86 961.16 130.91 978.54 148.29 978.54 172.99 969.85 183.07 969.85 204.8 969.85 239.58 982.89 252.62 982.89 283.05 978.54 304.78 987.24 317.82 987.24 339.56 982.89 352.6 982.89 378.68 982.89 426.49 991.59 435.19 991.59 465.61 982.89 474.31 982.89 517.78 991.59 526.47 1052.44 517.78 1069.83 522.12 1091.56 522.12 1117.64 539.51 1161.11 535.16 1178.5 543.86 1169.81 622.1 1156.77 635.14 1065.48 643.84 965.5 665.57 835.1 656.88 343.9 648.18 309.13 656.88 148.29 643.84 0.5 648.18"/></svg>