<svg id="Layer_1" data-name="Layer 1" xmlns="http://www.w3.org/2000/svg" viewBox="0 0 1803 1017.93"><polygon points="0 991.32 0 940.01 13.31 911.48 32.73 911.48 46.57 898.17 39.92 805.03 59.43 805.03 59.43 821.52 73.19 824.99 79.84 844.95 79.84 879.93 79.84 908.3 106.45 911.48 99.8 938.09 106.45 953.36 119.76 931.44 126.41 918.13 153.02 911.48 159.68 911.48 159.68 877.35 159.68 850.06 186.29 851.6 186.29 824.2 159.68 824.99 159.68 798.38 192.94 791.72 226.21 798.38 272.78 798.38 272.78 771.77 292.74 765.11 292.74 738.73 323.53 738.73 312.7 705.23 312.7 685.27 332.66 678.62 345.96 638.7 332.66 625.39 372.58 625.39 352.62 578.82 359.27 558.86 372.58 539.15 385.88 518.95 399.19 505.64 419.15 498.99 425.8 472.37 432.45 452.41 439.11 479.03 445.76 498.99 459.07 498.99 465.72 505.64 479.03 518.95 492.33 538.9 498.99 565.52 498.99 536.86 505.64 532.25 498.99 498.99 492.33 485.68 498.99 459.07 512.29 405.84 525.6 372.58 552.21 345.96 578.82 339.31 605.43 332.66 625.39 306.04 625.39 280.34 644.54 280.34 652.01 299.39 658.66 319.35 678.62 326 691.93 306.04 698.58 292.74 731.85 292.74 738.5 312.7 738.5 346.36 738.5 388.49 751.8 405.84 751.8 458.27 758.46 485.68 758.46 433.26 771.76 399.19 791.72 379.23 818.34 359.27 851.6 345.96 871.56 339.31 871.56 285.79 884.87 292.74 884.87 321.34 884.87 342.41 904.83 345.96 924.79 359.27 938.09 372.58 951.4 379.23 958.05 392.54 971.36 405.84 984.66 425.8 997.97 465.72 1004.62 498.99 1004.62 527.24 997.97 545.56 991.32 572.17 991.32 592.13 991.32 618.74 991.32 638.7 997.97 612.09 1011.28 592.13 1031.24 578.82 1057.85 572.17 1064.5 540.58 1071.15 538.9 1077.81 558.86 1077.81 572.6 1111.07 585.48 1124.38 605.43 1137.69 618.74 1149.01 635.83 1157.65 658.66 1164.3 685.27 1170.95 705.23 1197.57 705.23 1197.57 676.65 1210.87 678.62 1210.87 651.75 1224.18 645.35 1217.52 618.74 1217.52 585.48 1217.52 538.9 1224.18 523.68 1237.48 518.95 1237.48 505.01 1217.52 505.64 1217.52 492.33 1217.52 459.07 1224.18 472.37 1237.48 468.55 1237.48 448.98 1224.18 432.45 1230.83 419.15 1230.83 405.84 1257.44 399.19 1284.06 399.19 1304.02 405.84 1317.32 419.15 1317.32 439.11 1310.67 452.41 1310.67 485.68 1323.97 485.68 1323.97 478.33 1337.28 479.03 1337.28 489.89 1323.97 505.64 1304.02 518.95 1323.97 518.95 1330.63 538.9 1310.67 545.56 1310.67 558.86 1304.02 645.35 1317.32 658.66 1317.32 678.62 1317.32 705.23 1304.02 725.19 1304.02 758.46 1304.02 791.72 1323.97 791.72 1323.97 765.11 1350.59 758.46 1357.24 771.76 1357.24 800.26 1390.51 798.38 1390.51 736.23 1377.2 718.54 1377.2 671.97 1390.51 664.2 1390.51 545.56 1377.2 532.25 1377.2 485.68 1383.85 472.37 1383.85 419.15 1377.2 405.84 1383.85 392.54 1383.85 292.74 1363.89 279.43 1363.89 239.51 1377.2 226.21 1377.2 199.59 1370.55 179.63 1370.55 159.68 1383.85 139.72 1383.85 126.41 1377.2 113.1 1377.2 86.49 1390.51 59.88 1403.81 39.92 1410.46 19.96 1417.12 0 1430.42 0 1437.08 26.61 1450.38 53.23 1457.04 73.19 1463.69 86.49 1463.69 99.8 1457.04 119.76 1483.65 139.72 1483.65 166.18 1470.34 179.63 1470.34 199.59 1496.96 226.21 1496.96 264.01 1483.65 279.43 1483.65 312.7 1483.65 365.92 1503.61 385.88 1503.61 432.45 1496.96 465.72 1510.26 485.68 1510.26 518.95 1503.61 538.9 1503.61 578.82 1503.61 652.01 1516.91 665.31 1516.91 711.89 1503.61 725.19 1503.61 791.72 1516.91 805.03 1610.06 791.72 1636.67 798.38 1669.94 798.38 1709.86 824.99 1776.39 818.34 1803 831.64 1789.69 951.4 1769.73 971.36 1630.02 984.66 1477 1017.93 1277.4 1004.62 525.6 991.32 472.37 1004.62 226.21 984.66 0 991.32"/></svg>