<svg id="Layer1" xmlns="http://www.w3.org/2000/svg" viewBox="0 0 232.19 353.78"><defs><style>.cls-1{fill:#dcdcdc;}.cls-1,.cls-3,.cls-4,.cls-5,.cls-6{stroke:#000;stroke-miterlimit:10;}.cls-2,.cls-6{fill:#000012;}.cls-3{fill:#451a00;}.cls-4{fill:#fff;}.cls-5{fill:#969696;}</style></defs><path class="cls-1" d="M578,588.51a8.89,8.89,0,0,1-3.69-2.23c-3.63-3.12-4.78-8-5.9-13.53-1.53-7.54-2.32-11.3-2.54-14.29-1.32-17.84-2.06-26.78-.68-33.69,2.37-11.86,7-20.2,10.79-27.08a111,111,0,0,1,14.16-20.14c7.76-8.73,13.36-15,22.92-17.51,3.33-.86,11.13-2.89,17.87,1.32,6.26,3.92,8,11,8.42,12.55.55,2.19.24,2.43.34,10.57.13,11,.72,11.68,0,15.52-.58,3.13-1.38,7.4-4.72,11.56-1.08,1.35-5.1,6.2-11.8,7.27-1.15.18-7.31,1.16-9.1-1.65-1.93-3,2.32-8.87,4.05-11.23,4.44-6.09,8.72-7.45,9.77-12.88.08-.39.68-3.49-.34-4-1.84-.86-7.72,7.64-11.12,12.55-4.51,6.52-6.76,9.78-8.43,13.54-4.3,9.74-4.34,18.37-4.38,26.42,0,9-.06,13.48,2,19.16,4,10.78,11.72,16.11,9.44,20.14-.31.56-.61.72-6.07,3-10.37,4.29-11.63,4.66-13.48,5a45,45,0,0,1-8.43.33c-1.22,0-2,0-2.46,0A46.21,46.21,0,0,1,578,588.51Z" transform="translate(-547.48 -394.05)"/><polygon class="cls-2" points="20.67 179.32 21.66 183.58 22.93 187.22 24.49 190 26.42 192.11 29.28 194.05 34.4 195.03 38.28 195.03 39.76 195.33 39.55 198.53 39.44 201.85 39.44 205.06 39.44 205.89 34.48 205.89 30.21 205.56 26.8 205.31 21.76 205.15 18.71 204.24 16.56 203.66 15.74 203.16 15.74 196.56 16.56 190.78 18.54 183.35 20.52 178.57 20.67 179.32"/><path class="cls-3" d="M602.26,587.17c.41,1.06.73,1.94,1,2.54.71,2,1,2.75,1.54,4.14.33.79.59,1.37.77,1.76a54.15,54.15,0,0,0,2.64,5.13,32.24,32.24,0,0,1,2.8,5s.24.58.39,1.06c.37,1.09,1.81,5.42-.11,9.54A11.6,11.6,0,0,1,605,622a13.29,13.29,0,0,1-12.77-1.84,7.75,7.75,0,0,1-3-4.14c-.16-.59-.58-2.25.22-3,1.09-1,3.49.7,4.29-.23.48-.56.08-1.72-.22-2.3-.94-1.8-2.71-1.52-4.18-3.1-.79-.84-1-2-1.55-4.37a31.56,31.56,0,0,1-.55-7c0-1.38.06-2.52.11-3.32l.21-3.2,7.51-.25Z" transform="translate(-547.48 -394.05)"/><path class="cls-2" d="M609.15,601.63l-2.81-5.15-2.51-6.14L602.59,587l.48-.75,4.08-1.66,5.39-2.24,2.78-1.6.33-2.32-3.11-5.8-2.93-4.45-4.32-9.34-1.21-6.51L603.85,542l.89-15.17L608,515.52l4.52-8L617,501l4.18-5.86,3.19-3.93,2.21-2,1.24-.3.47,3.15-.78,2.92-1.87,2.91-2.28,2.34L621,502.6l-2.11,2.48-2.54,3.61-2.06,4.08-.32,3.35.88,1.46,4.46,1.36,5.74-.64,4.62-2,5.57-5L637.9,507l2-7.15.24-6.95L640,488l-.08-4.84v-7.27l-1.73-6.32-3.82-5.8-3.2-2.62-6.39-2.57h-4.29l-5.28.41-1.9.84-1.85.54,4.19-3.42,3.52-1.65,5.28-1.32,5-.66h1v1.76L645,455v3.09l.88,1.87.88,2,1.32,1.76,1.1,1.65,1.32.66,1.88-.11,1.1-1.21.88-1.87v-1.76l1.32-3.3,1.43-.56,1.87.67,1.76,2.86,1.43,4.84,1.66,5.51.88,6.71,1.32,6.94v28.95l-1.21,8.92-1.77,10.68-2.53,14.53s-.33,6.83-.33,7.16-.44,9.68-.44,9.68l-1.21,9.58-.33,11.34.66,10.35,1,4,1.43,2.54,1.43,2.42,1.22,1.32H637.21l-5.94-.55-9.14-1.54Z" transform="translate(-547.48 -394.05)"/><polygon class="cls-4" points="121.05 22.19 115.44 25.49 110.15 29.12 110.15 26.37 107.29 26.37 106.85 29.12 106.85 31.99 102.78 31.99 102.78 35.62 100.9 36.28 100.9 38.04 99.25 38.04 99.25 40.35 97.82 40.35 97.82 42.01 96.39 42.01 96.39 60.84 97.16 60.83 97.16 63.91 98.04 65.78 100.24 69.53 102.67 71.84 104.54 71.73 105.91 69.94 106.52 68.65 106.52 66.89 107.84 63.58 109.27 63.03 108.72 59.95 108.72 54.88 110.37 51.69 112.13 48.39 113.45 44.43 114.11 41.23 113.56 34.52 114.22 30.89 116.76 27.47 119.84 25.16 122.15 23.62 123.14 22.85 124.24 22.19 122.59 22.19 121.05 22.19"/><path class="cls-1" d="M659.07,458.19l2,3.86,1.14,3.84,1.82,6.83,1.82,11.22.21,11v18.16l-1.21,9.8-1.76,10.68-2.53,14.53-.33,7.16-.44,9.68-1.21,9.58-.33,11.34.66,10.35,1,4,1.43,2.54,1.43,2.42,1.21,1.32H637.27L609.2,602l2.2,4.25,1.12,4.12.13,2.09-.38,2.78-.59,1.61-2.48,3.31-2.2,1.56-2.87,1.19-2.3.42h-2.08l-2.88-.55-3.47-1.6-2.22-1.92-1.51-2.76-.21-2.1.43-.88,1.32-.32,1.21.23,1.76-.14L594,611l-2.72-2-1.46-1.07-1.35-3.47-.55-3.08v-.92h-3.57v33l-.88,4.07-1.54,3.53-1,2-1.65,2.64-2.09,3.74-2.42,3-4.08,4.29-3.08,4.18-2.73,3.53-2.11,3.52-1.33,2.64-1,2.53-1.65,3.53-1.65,4.62-1.32,2.75-1.1,2.43-.77,3.63v22l5.94.55,2.21-1.43,2.2-.11h3.52l1.76-.33,2.86-.22,6.17-.34h6.93l2.16-1.43,1.7-.88,9-.55,3.74.11,4.73-.77,5.77-.44,5.68-.44,6.72-.88,4.51-.55,4.52.22,5.39,1.21,4.95,1.1,3.86,1,5,.88a30.05,30.05,0,0,1,3.74.66c.33.22,13.77,2,13.77,2l6,1.21h8.59l4.4-.55,4.3.55V669.12l2.31-3.3,1.1-1.54,1.1-1.87v-5.07l-1.65-3.08-1.1-6.17-1-6.27-1-3.52-1.54-5.4-1.1-6.71-1.43-5.51-1.21-4.18L687.36,611l-.55-1.65-.22-56.81,1-5.39,1.54-3.52,1.21-5.47,1.65-5.43.88-3.31.88-7.59.23-4.52.33-4.86.33-10.22.22-9.69L693.08,481l-1.54-6.71-2.64-4.18-2.53-3.75-4.07-3.52-2.65-1.76-1.32-1.32-1.65-1.54h14.53l2-1.33,1.11-1.54,1.1-1.65.33-3.08-.88-1.87h-1.33l-1.21,1.65-1.32,1-2.09.44h-3.63l-4.74-1.1-2.75-2-2.86-2.42-2.75-2.1-2.87-3.3-3.19-3.47-1.7-2.69-.94-2.54-.22-4.29,2.31-3.74,1.87-2.2,2.42-1.88,1.77-1.21,1.65-1.32.66-.88-.66-.44-2.2,1.1-1,.77-2.32,1.54L664.68,422l-2.53,3.41-.62,4.17.51,6.18-.66,3.19-1.32,4-1.76,3.31-1.66,3.19v5.06l.55,3.08,1.88.67h0l2,3.86" transform="translate(-547.48 -394.05)"/><polygon class="cls-3" points="126.44 22.63 128.43 22.19 131.73 22.19 135.03 22.19 137.12 22.19 138.88 22.19 141.31 22.19 143.18 22.19 145.38 22.19 147.58 22.19 149.12 22.19 149.56 24.5 149.56 26.81 149.56 29.45 148.9 31.99 148.13 35.18 147.58 38.37 147.36 39.91 147.36 41.78 147.14 43.44 146.92 44.54 146.37 46.3 145.93 48.61 145.49 50.26 145.27 51.91 145.27 53.45 145.56 55.32 143.51 57.31 137.78 57.75 133.05 56.65 124.68 50.15 118.63 43.38 115.99 38.15 115.77 33.86 118.08 30.11 119.95 27.91 122.37 26.04 125.78 23.51 126.44 22.63"/><path class="cls-5" d="M630.39,453.34v1.76l13.48-.21V436.06h1.43v-1.65h1.44v-2.32h1.65v-1.76l1.87-.66V426h4.07l.44-5.62h2.86v2.76l5.29-3.64,5.61-3.3h3.2l2.2.44,2-.44h20.7l2-1.21h2l2-1.32.66-2.15-.66-2h-2.14l-2.65-1.16-2-2.64-3-2.81-2.31-2.14L687,399l-4.79-2-5.12-1.65-5.39-.83h-12l-6.27,1.65-3.8,1.82-4.13,2.48-3.8,2.8L640,406l-4.49.16h-4.13l-1.82,1.16v3.14l1.82,1,2.94.66-1.79,2.31-.66,3.14V422l1,2.86,1.46,1.43v2.31s.31,1.82,0,2-3.27.83-3.27.83L629.56,433l-1,2.48V439l1.49,2.1,2,.71,1.48,1.65-.49,3-2.31,2.31L628.57,450v1.76l.83,1.54Z" transform="translate(-547.48 -394.05)"/><path class="cls-6" d="M676.68,458.19h5.73l4.18,2,4,2.64c5.92,3.91,7.33,4.71,8.81,6.6a16,16,0,0,1,2.64,5.51,22.16,22.16,0,0,1,.88,7.71c-.27,9.07-.41,13.6-.44,13.87-1.5,12.5,1.09,22,0,47.12-.43,10.12-1.41,21.51-1.1,34.12a116.57,116.57,0,0,0,1.54,14.32c.92,5.59,1.83,8.73,3.31,11.89a35.23,35.23,0,0,0,3.52,5.94l-22.9-.55-.09-22.17-.08-21.09,0-13.55,2.53-8.91,2.86-10.9,2-15.42.68-16,.2-8.81L693.08,481l-1.54-6.71-5.17-7.93Z" transform="translate(-547.48 -394.05)"/><polygon class="cls-1" points="154.96 102.44 159.36 108.61 166.41 119.4 170.59 125.12 175.44 130.85 180.28 135.69 183.36 137.89 191.51 143.66 195.91 146.7 200.98 150.43 205.38 152.43 209.56 155.13 213.31 156.83 213.31 162.34 211.54 167.84 209.34 170.32 206.48 172.9 202.52 174.88 198.56 176.65 192.17 178.57 154.96 155.13 154.96 102.44"/><polygon class="cls-3" points="212.58 164.61 217 167.12 219.97 169.27 222.78 171.42 225.75 174.06 227.73 176.54 229.54 178.57 231.03 181.16 231.69 183.47 231.69 186.78 230.21 188.76 227.89 190.24 225.09 191.07 222.14 191.07 219.64 191.07 216 189.09 214.35 187.6 213.31 184.63 215.18 182.15 216.66 180.66 217.49 178.57 215.67 177.84 214.35 178.57 213.31 179.51 210.72 177.84 208.57 176.37 206.92 174.06 205.78 173.26 209.34 170.32 211.54 167.84 212.58 164.61"/><path class="cls-3" d="M559.87,712.5l-.82,4.9L557.89,720l-.82,2.64-.83,3.47-1,2.14-1.32,1-1.32,1.15L551,732.09l-1.49,1.82L548,736.06v10.07h1.82l2.64.83h11.4l1-1.66.82-.82h1.49l1.32.66,1.82,1.82h1.65s1.65-.5,2.15,0,8.42,0,8.42,0l20.8.22a10.46,10.46,0,0,1,3,0c.49.27,3-.28,3.8,0a25.42,25.42,0,0,0,4.45.08l3.14.06,1.32-1.69v-3.46l-.82-2-1.65-1.48-3.64-.33-4-.33-7.27-.17-5.12-.66-4-1.15-3.47-1.49-3.47-1.82-2.14-1.32-2.31-1.52L578,728l-.5-3.46-.33-2.65.33-3,.17-2.81.66-3.57,1.15-2.43-7.1.34-4.62.55-5.72.11Z" transform="translate(-547.48 -394.05)"/><polyline class="cls-3" points="122.45 317.56 124.38 320.7 126.86 324 128.51 326.81 129.83 329.61 130.82 332.59 130.82 335.56 129.66 336.88 128.34 338.04 127.52 339.85 127.85 343.32 127.85 345.47 128.18 347.78 128.84 350.26 131.81 350.26 135.28 350.26 139.08 350.26 142.05 350.26 145.19 350.26 147.17 350.26 148.66 350.26 149.65 348.77 151.46 347.94 155.59 348.11 159.06 348.11 163.68 348.11 168.64 347.28 171.28 346.29 175.9 345.63 180.03 344.97 183.34 343.98 186.64 343.32 189.11 342.33 191.43 341.67 193.08 340.51 194.4 339.36 195.39 336.71 195.39 333.91 193.57 331.93 190.1 331.93 186.14 332.42 180.53 333.08 173.76 332.92 166 332.75 161.7 331.43 158.23 330.11 154.77 328.62 151.13 326.31 149.15 324.16 146.34 321.69 143.32 318.45 137.75 318.69 128.51 318.77 122.45 317.56"/></svg>