<svg id="Layer_1" data-name="Layer 1" xmlns="http://www.w3.org/2000/svg" viewBox="0 0 949.55 609.13"><defs><style>.cls-1{stroke:#fff;stroke-miterlimit:10;}</style></defs><polygon class="cls-1" points="0.5 541.7 0.5 527.74 14.81 527.74 7.66 346.23 15.05 335.11 41.23 326.38 55.63 326.38 102.34 335.11 102.34 406.37 215.81 402.03 390.39 396.21 602.8 381.67 666.81 378.76 666.81 286.08 666.81 223.79 660.99 210 655.17 198.36 652.26 140.16 666.81 129.27 684.27 113.98 695.76 113.98 695.76 71.27 698.82 61.6 698.82 52.24 698.82 45.03 707.55 38.33 710.46 20.87 710.46 6.17 713.37 0.5 722.22 0.5 725 9.23 727.91 29.6 739.55 38.33 742.46 52.87 748.28 67.42 751.19 90.7 754.1 108.16 774.47 111.07 789.02 122.71 791.93 148.89 800.66 157.62 800.66 184.32 797.75 192.54 800.66 198.31 800.66 206.17 791.93 215.81 791.93 239.09 794.84 285.65 794.84 402.03 797.75 419.49 835.57 419.49 844.3 425.31 853.03 434.04 861.76 457.32 861.76 474.58 864.67 480.59 873.4 483.5 876.31 489.32 885.04 489.32 885.04 483.8 890.86 483.5 896.67 477.68 893.76 466.05 893.76 460.23 890.86 428.22 896.67 417.6 914.13 416.58 934.5 416.58 946.14 422.4 949.05 439.86 949.05 485 949.05 566.85 949.05 585.7 887.5 585.7 882.13 599.89 824.51 599.89 821.02 608.62 623.17 599.89 9.23 544.61 0.5 541.7"/></svg>