<svg xmlns="http://www.w3.org/2000/svg" viewBox="0 0 1466.28 969.03"><defs><style>.cls-1,.cls-9{fill:none;}.cls-1,.cls-7,.cls-8,.cls-9{stroke:#000;stroke-miterlimit:10;}.cls-1,.cls-7{stroke-width:2px;}.cls-2{fill:#fafdf6;}.cls-3{fill:#faffde;}.cls-4{fill:#fbfef7;}.cls-5{fill:#f3ecce;}.cls-6{fill:#3f2b42;}</style></defs><g id="Layer_2" data-name="Layer 2"><polygon class="cls-1" points="103 395.03 94 335.03 98.5 306.12 114 230.03 138 202.03 142 162.03 151 150.03 156 121.03 162 111.03 168 88.03 184 59.03 195 56.03 209 61.03 213 68.03 202 101.03 197 115.03 191 129.03 185 145.03 185 155.03 187 170.03 187 177.03 193 175.03 189 160.03 189 150.03 193 136.03 197 125.03 201 117.03 201 110.03 208 90.03 216 67.03 216 51.37 224 32.03 234 21.03 247 15.03 256.3 15.03 262 19.03 266 25.03 266 33.08 266 42.5 261 72.03 256 81.03 253 97.03 250 110.03 247 127.03 239 133.03 244 140.03 239 151.03 237.44 155.7 231 175.03 236 180.03 240 170.03 242 156.03 249 132.03 257 123.03 255 112.03 260 80.03 266 64.1 270 39.03 275 13.03 282 5.03 294 1.03 304 3.03 311 9.03 313 17.03 316 29.03 316 45.06 314 57.03 313 68.03 309 74.03 309 86.03 309 97.03 308 108.03 302 122.03 301 133.03 297 136.03 297 142.03 291 156.03 284 173.03 277 185.03 272 191.03 268.91 198.03 271 202.03 276.21 198.03 281.78 198.03 283 208.03 290 208.03 288 191.03 290 171.03 300 159.03 301 141.03 302 137.03 305 123.03 310 112.03 312 88.03 312 75.03 317 63.03 317 58.36 328 52.03 338 51.03 347 55.03 354 62.03 359 76.03 359 92.34 356 106.03 355 118.03 352 123.03 354 128.03 353 142.03 349 155.03 349 167.03 349 178.03 345 192.03 341 204.03 335 222.03 331 232.03 329 240.03 329 262.03 323 280.03 317 277.03 309 277.03 315 281.03 322 285.03 325 294.03 326 303.03 325 313.03 327 321.03 333 324.03 342 321.03 354 306.03 371 296.03 382 292.03 386 294.03 388 287.03 404 278.03 426 268.03 440 267.03 447 267.03 458 272.03 465 276.03 471 281.03 475 289.03 475 296.07 471 305.03 466 308.03 453 308.03 436 318.03 432 325.03 427 333.03 415 340.03 404 345.03 392 351.03 382 359.03 373 376.03 367 389.03 363 398.03 355 403.03 341 407.03 324 418.03 303 427.03 282 441.03 268 450.03 256 453.03 248 455.03 238 471.03 235.16 483.09 229 498.03 224 512.03 221 524.03 212 535.03 210 557.03 208 573.03 176 603.03 143 630.03 100 659.03 90 646.03 76 621.03 65 593.03 60 571.03 63 551.03 70 532.03 79 510.03 90 474.03 91 466.03 97 460.03 98 417.03 103 395.03"/><polygon class="cls-2" points="242 476.03 247 489.03 247 527.34 226 577.03 206 604.03 236 568.03 255 519.03 255 544.9 255 589.26 239 664.03 224 713.03 199 781.03 178 848.03 155 889.03 138 898.03 113 889.03 153 837.03 197 758.03 229 670.03 195 745.03 161 812.03 107 878.03 88 859.03 64 786.03 64 759.78 47 714.03 47 661.35 40 644.03 48 581.03 42 607.03 36 642.03 42 666.03 42 722.03 60 786.58 72 837.03 93 875.03 110 894.03 145.5 903.03 180 879.03 201 808.03 226 723.03 235 696.03 255 716.34 294 769.03 335 827.03 388 823.03 425 819.03 453 828.03 483 848.03 486 803.03 479 810.03 480 836.03 457 822.03 475 805.99 489 798.03 499 808.03 501 853.03 534 924.03 509 927.03 496 901.03 498.57 927.03 460.22 931.02 384 848.03 372 849.03 420 918.03 416.32 931.02 401 918.03 378 871.03 353 853.03 385 926.03 256 935.03 232 877.03 207 897.03 200 926.03 157 939.03 117 934.03 101 908.03 108.1 931.02 99 947.03 51 952.03 4.59 931.02 0 893.03 6 853.03 0 767.64 3 677.03 28 594.03 46 561.03 50 554.03 56 511.03 73.44 476.03 89 458.03 92 457.03 86 473.03 83 488.03 69 519.03 58 551.03 55 573.03 58 595.03 75 633.03 95 662.03 105 664.03 180 604.03 215 569.03 217 538.03 230 523.03 231 503.03 242 476.03"/><polygon class="cls-3" points="508 811.03 534 824.76 560.01 811.03 552 858.03 541 895.03 552.15 931.02 585 959.03 591 944.03 574 903.03 580 841.03 574 818.03 619 784.03 638 803.03 673 803.03 673 845.37 654 918.03 653.27 959.03 687 969.03 687 895.44 687 807.09 687 778.62 656.22 778.62 627 759.03 597.5 759.03 570 793.03 549 806.03 508 811.03"/><path class="cls-4" d="M1650,859l-18-29-11,21-23,18-6,23V867l32-26,5-17-11-17-9-2-90-116-5-41-23-26-7-14-26-30,2,99,12,45-5,70V722l-14-48.13V570l-7-66-33-56-12-32-50-62-10-6-25-10h-21l-31-4-15.81,5H1233l-83,21-73,36-47,37-20,32-24.82,74.06-18,76.44L953,682v24l-10.17,55.34V987L1609,1002l4-22,8-37,19-44,19-18ZM1425,666l-3-43-3-39-4-33-7-33-5,66-42,99-23,64,11,31-10,76-60,26-12-11-53-2-35,19-36-19-15-91-56-94-18-4v71l10,107-18-107-16-159-15,137v31l-14,40,10-37.5V731l16-148,4-107,23-22,23-40,11-4,21-8,24-14,15-14,26,7,28-8,35-19,22.3-9H1285l27,23,26,26,5,31,14,53,3,44,9,68-2,49-7,36,13-35,25-58,2-32-2-44-4-29-5-20-14-31-17-38,15,24,13,27,16,24,2,31,9,17V487l-2-15,7,12-2,34,7,31,4,37-1,58,4,45Z" transform="translate(-250 -55.97)"/><polygon class="cls-5" points="1411.24 830.03 1392 850.03 1378 888.03 1372 923.03 1372 933.63 1466.28 931.02 1466.28 844.41 1445 833.03 1411.24 830.03"/><polygon class="cls-6" points="747 421.03 732 405.03 735 380.03 744 370.03 739.5 362.15 739.5 345.6 747 328.05 767 307.03 802.66 278.03 842 257.03 878 241.03 916 229.03 979 218.03 1018.83 218.03 1056 222.03 1094 238.03 1105 257.03 1084 245.03 1045 240.03 995 239.03 955 245.03 912 254.03 886.49 264.24 882 266.03 863.35 278.03 886 266.03 914 256.03 962 247.03 1000 241.03 1050 242.03 1084 248.03 1107 260.03 1125 275.03 1130.17 289.03 1130.17 307.3 1123.9 319.53 1107 301.03 1095.59 289.03 1089 288.03 1073.33 278.03 1037 279.03 1021 273.03 1007 277.03 997 281.03 969 281.03 953 287.03 908 298.03 873 311.03 843 327.03 802 352.03 774 382.03 757 409.03 752 420.03 751 426.6 747 421.03"/><polygon class="cls-4" points="817 265.03 868 232.03 908 215.03 944 212.03 964 214.03 970 216.03 950.78 218.03 926 222.03 893.5 231.76 860 244.03 817 265.03"/><path class="cls-7" d="M1359,620l-6,22-7.63,26L1337,683l-6.6-15-8.4-16-14-9-23-8-13,2-16-6-13,3-19,9-16-2-26.91.54L1151,653l-18,30-6.08,32L1117,697l-9-18-5-15-14-15-8-29-10-22-13-21-4-30.59V456l-7,9-13,11-2,29.76V568l5,10,11,13,10.35,24.5L1062,632v6l7,9-1,25,21,32,38,64,4,8,10,12,12,8,3,11,16,10,11-1,2,8,13,6,17.5,8.35,16.35-2.35h10l12.19-2,11,2,8.78-11H1282l21-9,6-9,14-7,10-10,2-19,4-10V740l3-12,8-23,4-17,5-19,4-22V630l1-32Zm-45,80.49-1,9.51-10,9-2.08,10.06L1294,738l3,13-10,1-12-3-14,4,1,12-8,7-2-7-3-7,4-10-4-6-3-7-4-9-11,.7-11,3.3v10l4,13,6,4,1,11.64L1226,779l-10.5-5.91L1208,775l1-15-12-4-10,3-5-12-7-1-4-7-11-13-6-2-3-9h-3V689.49L1161,673l16-10,10-3,17,5,13.17,3,5.83-6h5l4,4,12-4,7,2,2.87-4,7.13,2v-8.16l11,3.16,11.74-3.16L1296,655l7,6,8,1-5,9,3,4,5,11Z" transform="translate(-250 -55.97)"/><polygon class="cls-7" points="911 552.03 902 572.03 890 588.03 884 603.03 901 581.03 908 568.03 915.94 552.03 911 552.03"/><polygon class="cls-8" points="1023 537.03 1036 544.03 1042.77 559.53 1056 568.03 1064 579.88 1071.02 591.21 1064 572.18 1050.92 559.53 1043 554.03 1040 546.03 1035 541.03 1023 537.03"/><polygon class="cls-8" points="946 501.03 946 521.75 938 531.03 928 545.03 921 551.03 921 559.53 924.55 564.12 930.11 564.12 933.5 563.13 941.5 562.53 948 565.63 948 569.8 953.5 574.53 958.44 577.53 965.5 581.19 973.99 581.19 960.5 574.53 952.5 569.53 950.66 559.53 935.5 558.53 930.5 555.53 930.5 548.53 937.88 537.03 942.5 530.53 949.5 523.53 949.5 514.53 948 480.36 946 501.03"/><polygon class="cls-8" points="987.5 574.53 990.5 567.53 995.1 559.53 1009.5 555.53 1009.5 559.53 1002.5 561.53 998.5 562.58 993.5 568.53 987.5 574.53"/><polygon class="cls-8" points="990.5 510.53 997.5 524.53 1001.5 532.53 1006.21 532.53 1001.5 526.53 990.5 510.53"/><polygon class="cls-8" points="915.94 627.79 922.5 629.53 930.46 629.53 934.5 626.53 936.5 631.53 941.98 631.53 946.2 631.53 948 629.03 952.5 632.53 960.81 632.53 961.93 629.53 965.5 631.45 981.5 633.53 986.32 630.03 990.39 630.03 996.5 630.53 1016.5 624.53 1020.1 624.53 1022.5 625.53 1026.5 627.53 1020.25 629.03 1009.5 627.55 1002.5 630.53 992.5 631.53 987.5 631.93 983.75 633.53 976.5 634.53 968.5 632.53 963.5 632.53 958.12 634.53 951.93 634.53 948.5 633.53 944.5 633.53 933.5 632.53 933.5 630.53 929.5 631.53 921 630.57 915.94 627.79"/><polygon class="cls-9" points="1041.5 612.53 1033.5 617.53 1029.5 625.53 1026.5 630.57 1020.5 635.53 1010.5 645.53 996.5 649.53 977.5 651.53 963.5 653.53 955.7 653.53 947.5 648.22 939.5 640.53 934.5 638.53 930.5 633.53 919.5 632.53 912.5 627.53 927.5 618.53 936.5 611.53 948 612.63 963.5 614.53 977 619.11 987.5 619.26 999.5 615.53 1009.5 612.03 1019.5 609.53 1026.5 604.33 1036.5 607.53 1041.5 612.53"/><polyline points="930.5 633.53 934 645.03 945 656.03 950 662.03 936.72 653.53 921 642.63 912.5 633.53 909 626.03 915.94 620.49 925 615.03 931.09 612.03 936.5 611.53 921 622.43 912.5 627.53 919.5 632.53 930.5 633.53"/><polygon points="1026.5 634.53 1023 648.35 1011.89 653.53 1002 657.03 998.5 660.45 1019.53 653.53 1029 644.03 1032.88 634.53 1039 622.03 1047.01 615.53 1047.01 607.14 1039 618.03 1035 622.03 1032.88 628.93 1026.5 634.53"/><polygon points="1032 496.03 1014 487.03 1001.01 480.36 990.5 473.18 984 457.03 987.5 439.83 992 417.03 1001.91 400.03 1013 391.03 1019 383.03 1028 386.03 1038 378.03 1047.01 380.12 1055.98 378.03 1064 378.03 1077 384.03 1084 391.03 1093.39 400.03 1099 411.03 1103 425.03 1103 434.65 1096.99 437.03 1094 430.03 1092 418.03 1079 407.03 1071.02 409.42 1058.24 400.03 1047.01 396.8 1039 407.03 1023 411.67 1009.5 412.12 998.5 411.67 995 419.03 994 429.03 993 439.03 993 451.03 992 459.03 1001 459.03 1005 461.03 994 463.03 994 468.03 1001 474.03 1008 479.03 1018.47 484.03 1031 490.03 1032 496.03"/><polygon points="819.75 496.03 830.54 484.03 835.83 490.03 833 478.03 835.83 471.77 835 463.03 839 454.03 847 448.03 863 447.03 857 441.03 873 440.03 891.2 437.03 900.47 437.03 910.57 437.03 910.57 430.08 910.57 425.03 906 422.03 904 415.03 892 417.03 885 416.03 874 418.03 865.16 419.77 855 420.03 844.25 426.6 832.25 437.03 829 445.03 819.75 450.29 819 460.03 821 468.03 822 476.03 819 480.36 821.51 483.09 819 494.09 819.75 496.03"/><polygon points="845.24 484.03 844 470.03 852 461.03 851 468.03 850 474.03 860 463.03 866 460.03 873 458.03 880 456.03 882 459.03 879 463.03 880 467.03 881.4 470.03 884.2 470.03 887 469.03 889 464.03 887 461.03 885 459.03 887.58 455.53 891.66 455.53 895 457.03 902 461.03 906 463.03 905 465.03 897 464.03 896 465.03 897 469.03 896 473.03 894 475.03 883 478.03 878 477.03 875 474.67 872 471.03 872 466.03 872 463.03 867 463.03 863 468.03 862 471.03 858 475.03 855 478.03 860 479.03 863 479.03 862.62 480.36 857.14 480.36 852 481.03 850.49 483.09 852 486.03 853 489.03 849 488.03 845.24 484.03"/><polygon points="1019 456.03 1021 457.03 1021 460.37 1013.19 460.37 1008.83 458.2 1009 453.03 1021 445.4 1031 442.03 1036 440.03 1039.32 440.03 1039 443.03 1037 446.03 1037 448.03 1038.23 450.2 1040.13 450.2 1043.5 450.2 1045 448.03 1045 445.13 1043.5 443.77 1043.5 440.64 1047 439.03 1052 441.03 1058 442.03 1061 443.03 1065 444.03 1070 445.03 1072 448.03 1074 450.03 1078 454.03 1077 456.03 1071 457.03 1066 455.03 1064 451.03 1059 449.03 1054 448.03 1052 446.03 1052 448.03 1053 452.03 1052 454.03 1049 457.03 1043.5 457.21 1039 457.03 1034 456.03 1031 453.03 1030.69 449.7 1031 447.03 1029 446.03 1025 448.03 1021.71 449.7 1021 452.03 1021 454.03 1019 456.03"/></g></svg>